%TF.GenerationSoftware,KiCad,Pcbnew,10.0.1*%
%TF.CreationDate,2026-04-28T10:57:45+05:30*%
%TF.ProjectId,Power_Supply,506f7765-725f-4537-9570-706c792e6b69,rev?*%
%TF.SameCoordinates,Original*%
%TF.FileFunction,Copper,L1,Top*%
%TF.FilePolarity,Positive*%
%FSLAX46Y46*%
G04 Gerber Fmt 4.6, Leading zero omitted, Abs format (unit mm)*
G04 Created by KiCad (PCBNEW 10.0.1) date 2026-04-28 10:57:45*
%MOMM*%
%LPD*%
G01*
G04 APERTURE LIST*
G04 Aperture macros list*
%AMRoundRect*
0 Rectangle with rounded corners*
0 $1 Rounding radius*
0 $2 $3 $4 $5 $6 $7 $8 $9 X,Y pos of 4 corners*
0 Add a 4 corners polygon primitive as box body*
4,1,4,$2,$3,$4,$5,$6,$7,$8,$9,$2,$3,0*
0 Add four circle primitives for the rounded corners*
1,1,$1+$1,$2,$3*
1,1,$1+$1,$4,$5*
1,1,$1+$1,$6,$7*
1,1,$1+$1,$8,$9*
0 Add four rect primitives between the rounded corners*
20,1,$1+$1,$2,$3,$4,$5,0*
20,1,$1+$1,$4,$5,$6,$7,0*
20,1,$1+$1,$6,$7,$8,$9,0*
20,1,$1+$1,$8,$9,$2,$3,0*%
G04 Aperture macros list end*
%TA.AperFunction,ComponentPad*%
%ADD10R,1.905000X2.000000*%
%TD*%
%TA.AperFunction,ComponentPad*%
%ADD11O,1.905000X2.000000*%
%TD*%
%TA.AperFunction,ComponentPad*%
%ADD12C,1.600000*%
%TD*%
%TA.AperFunction,ComponentPad*%
%ADD13R,1.800000X1.800000*%
%TD*%
%TA.AperFunction,ComponentPad*%
%ADD14C,1.800000*%
%TD*%
%TA.AperFunction,ComponentPad*%
%ADD15RoundRect,0.250000X-0.550000X-0.550000X0.550000X-0.550000X0.550000X0.550000X-0.550000X0.550000X0*%
%TD*%
%TA.AperFunction,Conductor*%
%ADD16C,0.200000*%
%TD*%
G04 APERTURE END LIST*
D10*
%TO.P,U1,1,IN_1*%
%TO.N,VCC*%
X158235000Y-140735000D03*
D11*
%TO.P,U1,2,GND_2*%
%TO.N,GND*%
X160775000Y-140735000D03*
%TO.P,U1,3,OUT_3*%
X163315000Y-140735000D03*
%TD*%
D12*
%TO.P,R1,1*%
%TO.N,Net-(D1-K)*%
X175500000Y-124000000D03*
%TO.P,R1,2*%
%TO.N,GND*%
X185660000Y-124000000D03*
%TD*%
D13*
%TO.P,D1,1,K_1*%
%TO.N,Net-(D1-K)*%
X179500000Y-133000000D03*
D14*
%TO.P,D1,2,A_2*%
%TO.N,GND*%
X182040000Y-133000000D03*
%TD*%
D15*
%TO.P,C2,1*%
%TO.N,GND*%
X169500000Y-124500000D03*
D12*
%TO.P,C2,2*%
X171500000Y-124500000D03*
%TD*%
D15*
%TO.P,C1,1*%
%TO.N,VCC*%
X149000000Y-124000000D03*
D12*
%TO.P,C1,2*%
%TO.N,GND*%
X151000000Y-124000000D03*
%TD*%
%TO.N,GND*%
D16*
X185660000Y-128920000D02*
X185660000Y-124000000D01*
X182040000Y-133000000D02*
X182040000Y-132540000D01*
X182040000Y-132540000D02*
X185660000Y-128920000D01*
X182040000Y-133000000D02*
X180540000Y-134500000D01*
X180540000Y-134500000D02*
X169500000Y-134500000D01*
%TO.N,Net-(D1-K)*%
X179500000Y-128000000D02*
X175500000Y-124000000D01*
X179500000Y-133000000D02*
X179500000Y-128000000D01*
%TO.N,GND*%
X171500000Y-124500000D02*
X169500000Y-124500000D01*
X166975000Y-121975000D02*
X169500000Y-124500000D01*
X153025000Y-121975000D02*
X166975000Y-121975000D01*
X151000000Y-124000000D02*
X153025000Y-121975000D01*
X169500000Y-134500000D02*
X169500000Y-124500000D01*
X163315000Y-140685000D02*
X169500000Y-134500000D01*
X163315000Y-140735000D02*
X163315000Y-140685000D01*
X160775000Y-140735000D02*
X163315000Y-140735000D01*
%TO.N,VCC*%
X158235000Y-133235000D02*
X149000000Y-124000000D01*
X158235000Y-140735000D02*
X158235000Y-133235000D01*
%TD*%
M02*
