%TF.GenerationSoftware,KiCad,Pcbnew,10.0.1*%
%TF.CreationDate,2026-04-27T13:50:11+05:30*%
%TF.ProjectId,LED_Circuit,4c45445f-4369-4726-9375-69742e6b6963,rev?*%
%TF.SameCoordinates,Original*%
%TF.FileFunction,Legend,Top*%
%TF.FilePolarity,Positive*%
%FSLAX46Y46*%
G04 Gerber Fmt 4.6, Leading zero omitted, Abs format (unit mm)*
G04 Created by KiCad (PCBNEW 10.0.1) date 2026-04-27 13:50:11*
%MOMM*%
%LPD*%
G01*
G04 APERTURE LIST*
%ADD10C,0.150000*%
%ADD11C,0.120000*%
G04 APERTURE END LIST*
D10*
X151913333Y-84584819D02*
X151580000Y-84108628D01*
X151341905Y-84584819D02*
X151341905Y-83584819D01*
X151341905Y-83584819D02*
X151722857Y-83584819D01*
X151722857Y-83584819D02*
X151818095Y-83632438D01*
X151818095Y-83632438D02*
X151865714Y-83680057D01*
X151865714Y-83680057D02*
X151913333Y-83775295D01*
X151913333Y-83775295D02*
X151913333Y-83918152D01*
X151913333Y-83918152D02*
X151865714Y-84013390D01*
X151865714Y-84013390D02*
X151818095Y-84061009D01*
X151818095Y-84061009D02*
X151722857Y-84108628D01*
X151722857Y-84108628D02*
X151341905Y-84108628D01*
X152865714Y-84584819D02*
X152294286Y-84584819D01*
X152580000Y-84584819D02*
X152580000Y-83584819D01*
X152580000Y-83584819D02*
X152484762Y-83727676D01*
X152484762Y-83727676D02*
X152389524Y-83822914D01*
X152389524Y-83822914D02*
X152294286Y-83870533D01*
X147531905Y-94494819D02*
X147531905Y-93494819D01*
X147531905Y-93494819D02*
X147770000Y-93494819D01*
X147770000Y-93494819D02*
X147912857Y-93542438D01*
X147912857Y-93542438D02*
X148008095Y-93637676D01*
X148008095Y-93637676D02*
X148055714Y-93732914D01*
X148055714Y-93732914D02*
X148103333Y-93923390D01*
X148103333Y-93923390D02*
X148103333Y-94066247D01*
X148103333Y-94066247D02*
X148055714Y-94256723D01*
X148055714Y-94256723D02*
X148008095Y-94351961D01*
X148008095Y-94351961D02*
X147912857Y-94447200D01*
X147912857Y-94447200D02*
X147770000Y-94494819D01*
X147770000Y-94494819D02*
X147531905Y-94494819D01*
X149055714Y-94494819D02*
X148484286Y-94494819D01*
X148770000Y-94494819D02*
X148770000Y-93494819D01*
X148770000Y-93494819D02*
X148674762Y-93637676D01*
X148674762Y-93637676D02*
X148579524Y-93732914D01*
X148579524Y-93732914D02*
X148484286Y-93780533D01*
%TO.C,R1*%
D11*
X148040000Y-86500000D02*
X148810000Y-86500000D01*
X156120000Y-86500000D02*
X155350000Y-86500000D01*
X148810000Y-85130000D02*
X155350000Y-85130000D01*
X155350000Y-87870000D01*
X148810000Y-87870000D01*
X148810000Y-85130000D01*
%TO.C,D1*%
X145710000Y-96455000D02*
X145710000Y-99545000D01*
X145710000Y-96455170D02*
G75*
G02*
X151260000Y-98000000I2560000J-1544830D01*
G01*
X151260000Y-98000000D02*
G75*
G02*
X145710000Y-99544830I-2990000J0D01*
G01*
X150770000Y-98000000D02*
G75*
G02*
X145770000Y-98000000I-2500000J0D01*
G01*
X145770000Y-98000000D02*
G75*
G02*
X150770000Y-98000000I2500000J0D01*
G01*
%TD*%
M02*
