%TF.GenerationSoftware,KiCad,Pcbnew,10.0.1*%
%TF.CreationDate,2026-04-29T10:34:41+05:30*%
%TF.ProjectId,MCU_Board,4d43555f-426f-4617-9264-2e6b69636164,rev?*%
%TF.SameCoordinates,Original*%
%TF.FileFunction,Copper,L3,Inr*%
%TF.FilePolarity,Positive*%
%FSLAX46Y46*%
G04 Gerber Fmt 4.6, Leading zero omitted, Abs format (unit mm)*
G04 Created by KiCad (PCBNEW 10.0.1) date 2026-04-29 10:34:41*
%MOMM*%
%LPD*%
G01*
G04 APERTURE LIST*
G04 Aperture macros list*
%AMRoundRect*
0 Rectangle with rounded corners*
0 $1 Rounding radius*
0 $2 $3 $4 $5 $6 $7 $8 $9 X,Y pos of 4 corners*
0 Add a 4 corners polygon primitive as box body*
4,1,4,$2,$3,$4,$5,$6,$7,$8,$9,$2,$3,0*
0 Add four circle primitives for the rounded corners*
1,1,$1+$1,$2,$3*
1,1,$1+$1,$4,$5*
1,1,$1+$1,$6,$7*
1,1,$1+$1,$8,$9*
0 Add four rect primitives between the rounded corners*
20,1,$1+$1,$2,$3,$4,$5,0*
20,1,$1+$1,$4,$5,$6,$7,0*
20,1,$1+$1,$6,$7,$8,$9,0*
20,1,$1+$1,$8,$9,$2,$3,0*%
G04 Aperture macros list end*
%TA.AperFunction,ComponentPad*%
%ADD10RoundRect,0.250000X-0.550000X-0.550000X0.550000X-0.550000X0.550000X0.550000X-0.550000X0.550000X0*%
%TD*%
%TA.AperFunction,ComponentPad*%
%ADD11C,1.600000*%
%TD*%
%TA.AperFunction,ComponentPad*%
%ADD12R,1.800000X1.800000*%
%TD*%
%TA.AperFunction,ComponentPad*%
%ADD13C,1.800000*%
%TD*%
G04 APERTURE END LIST*
D10*
%TO.N,VCC*%
%TO.C,U1*%
X155215000Y-133095000D03*
D11*
%TO.N,unconnected-(U1-XTAL1{slash}PB3-Pad2)*%
X155215000Y-135635000D03*
%TO.N,unconnected-(U1-NC-Pad3)*%
X155215000Y-138175000D03*
%TO.N,unconnected-(U1-NC-Pad4)*%
X155215000Y-140715000D03*
%TO.N,unconnected-(U1-XTAL2{slash}PB4-Pad5)*%
X162835000Y-140715000D03*
%TO.N,unconnected-(U1-NC-Pad6)*%
X162835000Y-138175000D03*
%TO.N,unconnected-(U1-NC-Pad7)*%
X162835000Y-135635000D03*
%TO.N,GND*%
X162835000Y-133095000D03*
%TD*%
%TO.N,Net-(U1-AREF{slash}PB0)*%
%TO.C,R1*%
X148575000Y-129025000D03*
%TO.N,Net-(D1-K)*%
X158735000Y-129025000D03*
%TD*%
D12*
%TO.N,Net-(D1-K)*%
%TO.C,D1*%
X156095000Y-146495000D03*
D13*
%TO.N,GND*%
X158635000Y-146495000D03*
%TD*%
D10*
%TO.N,VCC*%
%TO.C,C2*%
X149114775Y-140875000D03*
D11*
%TO.N,GND*%
X151614775Y-140875000D03*
%TD*%
D10*
%TO.N,VCC*%
%TO.C,C1*%
X149114775Y-134325000D03*
D11*
%TO.N,GND*%
X151614775Y-134325000D03*
%TD*%
%TA.AperFunction,Conductor*%
%TO.N,VCC*%
G36*
X168942539Y-125520185D02*
G01*
X168988294Y-125572989D01*
X168999500Y-125624500D01*
X168999500Y-151375500D01*
X168979815Y-151442539D01*
X168927011Y-151488294D01*
X168875500Y-151499500D01*
X142124500Y-151499500D01*
X142057461Y-151479815D01*
X142011706Y-151427011D01*
X142000500Y-151375500D01*
X142000500Y-145547135D01*
X154694500Y-145547135D01*
X154694500Y-147442870D01*
X154694501Y-147442876D01*
X154700908Y-147502483D01*
X154751202Y-147637328D01*
X154751206Y-147637335D01*
X154837452Y-147752544D01*
X154837455Y-147752547D01*
X154952664Y-147838793D01*
X154952671Y-147838797D01*
X155087517Y-147889091D01*
X155087516Y-147889091D01*
X155094444Y-147889835D01*
X155147127Y-147895500D01*
X157042872Y-147895499D01*
X157102483Y-147889091D01*
X157237331Y-147838796D01*
X157352546Y-147752546D01*
X157438796Y-147637331D01*
X157466429Y-147563243D01*
X157468601Y-147557420D01*
X157510471Y-147501486D01*
X157575936Y-147477068D01*
X157644209Y-147491919D01*
X157672464Y-147513071D01*
X157722636Y-147563243D01*
X157722641Y-147563247D01*
X157824603Y-147637326D01*
X157900978Y-147692815D01*
X158029375Y-147758237D01*
X158097393Y-147792895D01*
X158097396Y-147792896D01*
X158202221Y-147826955D01*
X158307049Y-147861015D01*
X158524778Y-147895500D01*
X158524779Y-147895500D01*
X158745221Y-147895500D01*
X158745222Y-147895500D01*
X158962951Y-147861015D01*
X159172606Y-147792895D01*
X159369022Y-147692815D01*
X159547365Y-147563242D01*
X159703242Y-147407365D01*
X159832815Y-147229022D01*
X159932895Y-147032606D01*
X160001015Y-146822951D01*
X160035500Y-146605222D01*
X160035500Y-146384778D01*
X160001015Y-146167049D01*
X159932895Y-145957394D01*
X159932895Y-145957393D01*
X159898237Y-145889375D01*
X159832815Y-145760978D01*
X159774501Y-145680715D01*
X159703247Y-145582641D01*
X159703243Y-145582636D01*
X159547363Y-145426756D01*
X159547358Y-145426752D01*
X159369025Y-145297187D01*
X159369024Y-145297186D01*
X159369022Y-145297185D01*
X159251791Y-145237452D01*
X159172606Y-145197104D01*
X159172603Y-145197103D01*
X158962952Y-145128985D01*
X158854086Y-145111742D01*
X158745222Y-145094500D01*
X158524778Y-145094500D01*
X158452201Y-145105995D01*
X158307047Y-145128985D01*
X158097396Y-145197103D01*
X158097393Y-145197104D01*
X157900974Y-145297187D01*
X157722641Y-145426752D01*
X157722636Y-145426756D01*
X157672463Y-145476929D01*
X157611140Y-145510413D01*
X157541448Y-145505428D01*
X157485515Y-145463557D01*
X157468601Y-145432580D01*
X157438797Y-145352671D01*
X157438793Y-145352664D01*
X157352547Y-145237455D01*
X157352544Y-145237452D01*
X157237335Y-145151206D01*
X157237328Y-145151202D01*
X157102482Y-145100908D01*
X157102483Y-145100908D01*
X157042883Y-145094501D01*
X157042881Y-145094500D01*
X157042873Y-145094500D01*
X157042864Y-145094500D01*
X155147129Y-145094500D01*
X155147123Y-145094501D01*
X155087516Y-145100908D01*
X154952671Y-145151202D01*
X154952664Y-145151206D01*
X154837455Y-145237452D01*
X154837452Y-145237455D01*
X154751206Y-145352664D01*
X154751202Y-145352671D01*
X154700908Y-145487517D01*
X154694501Y-145547116D01*
X154694500Y-145547135D01*
X142000500Y-145547135D01*
X142000500Y-140275013D01*
X147814775Y-140275013D01*
X147814775Y-140625000D01*
X148799089Y-140625000D01*
X148794695Y-140629394D01*
X148742034Y-140720606D01*
X148714775Y-140822339D01*
X148714775Y-140927661D01*
X148742034Y-141029394D01*
X148794695Y-141120606D01*
X148799089Y-141125000D01*
X147814776Y-141125000D01*
X147814776Y-141474986D01*
X147825269Y-141577697D01*
X147880416Y-141744119D01*
X147880418Y-141744124D01*
X147972459Y-141893345D01*
X148096429Y-142017315D01*
X148245650Y-142109356D01*
X148245655Y-142109358D01*
X148412077Y-142164505D01*
X148412084Y-142164506D01*
X148514794Y-142174999D01*
X148864774Y-142174999D01*
X148864775Y-142174998D01*
X148864775Y-141190686D01*
X148869169Y-141195080D01*
X148960381Y-141247741D01*
X149062114Y-141275000D01*
X149167436Y-141275000D01*
X149269169Y-141247741D01*
X149360381Y-141195080D01*
X149364775Y-141190686D01*
X149364775Y-142174999D01*
X149714747Y-142174999D01*
X149714761Y-142174998D01*
X149817472Y-142164505D01*
X149983894Y-142109358D01*
X149983899Y-142109356D01*
X150133120Y-142017315D01*
X150257090Y-141893345D01*
X150349131Y-141744124D01*
X150349134Y-141744117D01*
X150363838Y-141699743D01*
X150403610Y-141642298D01*
X150468125Y-141615474D01*
X150536901Y-141627788D01*
X150581863Y-141665861D01*
X150622809Y-141722219D01*
X150767561Y-141866971D01*
X150922524Y-141979556D01*
X150933165Y-141987287D01*
X151049382Y-142046503D01*
X151115551Y-142080218D01*
X151115553Y-142080218D01*
X151115556Y-142080220D01*
X151205234Y-142109358D01*
X151310240Y-142143477D01*
X151411332Y-142159488D01*
X151512423Y-142175500D01*
X151512424Y-142175500D01*
X151717126Y-142175500D01*
X151717127Y-142175500D01*
X151919309Y-142143477D01*
X152113994Y-142080220D01*
X152296385Y-141987287D01*
X152389365Y-141919732D01*
X152461988Y-141866971D01*
X152461990Y-141866968D01*
X152461994Y-141866966D01*
X152606741Y-141722219D01*
X152606743Y-141722215D01*
X152606746Y-141722213D01*
X152659507Y-141649590D01*
X152727062Y-141556610D01*
X152819995Y-141374219D01*
X152883252Y-141179534D01*
X152915275Y-140977352D01*
X152915275Y-140772648D01*
X152907032Y-140720606D01*
X152883252Y-140570465D01*
X152831265Y-140410466D01*
X152819995Y-140375781D01*
X152819993Y-140375778D01*
X152819993Y-140375776D01*
X152768651Y-140275013D01*
X152727062Y-140193390D01*
X152678685Y-140126804D01*
X152606746Y-140027786D01*
X152461988Y-139883028D01*
X152296388Y-139762715D01*
X152296387Y-139762714D01*
X152296385Y-139762713D01*
X152218499Y-139723028D01*
X152113998Y-139669781D01*
X151919309Y-139606522D01*
X151744770Y-139578878D01*
X151717127Y-139574500D01*
X151512423Y-139574500D01*
X151488104Y-139578351D01*
X151310240Y-139606522D01*
X151115551Y-139669781D01*
X150933161Y-139762715D01*
X150767561Y-139883028D01*
X150622807Y-140027782D01*
X150581862Y-140084139D01*
X150526532Y-140126804D01*
X150456919Y-140132783D01*
X150395124Y-140100177D01*
X150363838Y-140050256D01*
X150349134Y-140005882D01*
X150349131Y-140005875D01*
X150257090Y-139856654D01*
X150133120Y-139732684D01*
X149983899Y-139640643D01*
X149983894Y-139640641D01*
X149817472Y-139585494D01*
X149817465Y-139585493D01*
X149714761Y-139575000D01*
X149364775Y-139575000D01*
X149364775Y-140559314D01*
X149360381Y-140554920D01*
X149269169Y-140502259D01*
X149167436Y-140475000D01*
X149062114Y-140475000D01*
X148960381Y-140502259D01*
X148869169Y-140554920D01*
X148864775Y-140559314D01*
X148864775Y-139575000D01*
X148514803Y-139575000D01*
X148514787Y-139575001D01*
X148412077Y-139585494D01*
X148245655Y-139640641D01*
X148245650Y-139640643D01*
X148096429Y-139732684D01*
X147972459Y-139856654D01*
X147880418Y-140005875D01*
X147880416Y-140005880D01*
X147825269Y-140172302D01*
X147825268Y-140172309D01*
X147814775Y-140275013D01*
X142000500Y-140275013D01*
X142000500Y-133725013D01*
X147814775Y-133725013D01*
X147814775Y-134075000D01*
X148799089Y-134075000D01*
X148794695Y-134079394D01*
X148742034Y-134170606D01*
X148714775Y-134272339D01*
X148714775Y-134377661D01*
X148742034Y-134479394D01*
X148794695Y-134570606D01*
X148799089Y-134575000D01*
X147814776Y-134575000D01*
X147814776Y-134924986D01*
X147825269Y-135027697D01*
X147880416Y-135194119D01*
X147880418Y-135194124D01*
X147972459Y-135343345D01*
X148096429Y-135467315D01*
X148245650Y-135559356D01*
X148245655Y-135559358D01*
X148412077Y-135614505D01*
X148412084Y-135614506D01*
X148514794Y-135624999D01*
X148864774Y-135624999D01*
X148864775Y-135624998D01*
X148864775Y-134640686D01*
X148869169Y-134645080D01*
X148960381Y-134697741D01*
X149062114Y-134725000D01*
X149167436Y-134725000D01*
X149269169Y-134697741D01*
X149360381Y-134645080D01*
X149364775Y-134640686D01*
X149364775Y-135624999D01*
X149714747Y-135624999D01*
X149714761Y-135624998D01*
X149817472Y-135614505D01*
X149983894Y-135559358D01*
X149983899Y-135559356D01*
X150133120Y-135467315D01*
X150257090Y-135343345D01*
X150349131Y-135194124D01*
X150349134Y-135194117D01*
X150363838Y-135149743D01*
X150403610Y-135092298D01*
X150468125Y-135065474D01*
X150536901Y-135077788D01*
X150581862Y-135115860D01*
X150606479Y-135149743D01*
X150622809Y-135172219D01*
X150767561Y-135316971D01*
X150919634Y-135427456D01*
X150933165Y-135437287D01*
X151049382Y-135496503D01*
X151115551Y-135530218D01*
X151115553Y-135530218D01*
X151115556Y-135530220D01*
X151205234Y-135559358D01*
X151310240Y-135593477D01*
X151411332Y-135609488D01*
X151512423Y-135625500D01*
X151512424Y-135625500D01*
X151717126Y-135625500D01*
X151717127Y-135625500D01*
X151919309Y-135593477D01*
X152106521Y-135532648D01*
X153914500Y-135532648D01*
X153914500Y-135737351D01*
X153946522Y-135939534D01*
X154009781Y-136134223D01*
X154102715Y-136316613D01*
X154223028Y-136482213D01*
X154367786Y-136626971D01*
X154522749Y-136739556D01*
X154533390Y-136747287D01*
X154624840Y-136793883D01*
X154626080Y-136794515D01*
X154676876Y-136842490D01*
X154693671Y-136910311D01*
X154671134Y-136976446D01*
X154626080Y-137015485D01*
X154533386Y-137062715D01*
X154367786Y-137183028D01*
X154223028Y-137327786D01*
X154102715Y-137493386D01*
X154009781Y-137675776D01*
X153946522Y-137870465D01*
X153914500Y-138072648D01*
X153914500Y-138277351D01*
X153946522Y-138479534D01*
X154009781Y-138674223D01*
X154102715Y-138856613D01*
X154223028Y-139022213D01*
X154367786Y-139166971D01*
X154522749Y-139279556D01*
X154533390Y-139287287D01*
X154624840Y-139333883D01*
X154626080Y-139334515D01*
X154676876Y-139382490D01*
X154693671Y-139450311D01*
X154671134Y-139516446D01*
X154626080Y-139555485D01*
X154533386Y-139602715D01*
X154367786Y-139723028D01*
X154223028Y-139867786D01*
X154102715Y-140033386D01*
X154009781Y-140215776D01*
X153946522Y-140410465D01*
X153914500Y-140612648D01*
X153914500Y-140817351D01*
X153946522Y-141019534D01*
X154009781Y-141214223D01*
X154073691Y-141339653D01*
X154091306Y-141374223D01*
X154102715Y-141396613D01*
X154223028Y-141562213D01*
X154367786Y-141706971D01*
X154522749Y-141819556D01*
X154533390Y-141827287D01*
X154649607Y-141886503D01*
X154715776Y-141920218D01*
X154715778Y-141920218D01*
X154715781Y-141920220D01*
X154820137Y-141954127D01*
X154910465Y-141983477D01*
X155011557Y-141999488D01*
X155112648Y-142015500D01*
X155112649Y-142015500D01*
X155317351Y-142015500D01*
X155317352Y-142015500D01*
X155519534Y-141983477D01*
X155714219Y-141920220D01*
X155896610Y-141827287D01*
X156011085Y-141744117D01*
X156062213Y-141706971D01*
X156062215Y-141706968D01*
X156062219Y-141706966D01*
X156206966Y-141562219D01*
X156206968Y-141562215D01*
X156206971Y-141562213D01*
X156270344Y-141474986D01*
X156327287Y-141396610D01*
X156420220Y-141214219D01*
X156483477Y-141019534D01*
X156515500Y-140817352D01*
X156515500Y-140612648D01*
X156483477Y-140410466D01*
X156420220Y-140215781D01*
X156420218Y-140215778D01*
X156420218Y-140215776D01*
X156374884Y-140126804D01*
X156327287Y-140033390D01*
X156319556Y-140022749D01*
X156206971Y-139867786D01*
X156062213Y-139723028D01*
X155896614Y-139602715D01*
X155842220Y-139575000D01*
X155803917Y-139555483D01*
X155753123Y-139507511D01*
X155736328Y-139439690D01*
X155758865Y-139373555D01*
X155803917Y-139334516D01*
X155896610Y-139287287D01*
X155917770Y-139271913D01*
X156062213Y-139166971D01*
X156062215Y-139166968D01*
X156062219Y-139166966D01*
X156206966Y-139022219D01*
X156206968Y-139022215D01*
X156206971Y-139022213D01*
X156259732Y-138949590D01*
X156327287Y-138856610D01*
X156420220Y-138674219D01*
X156483477Y-138479534D01*
X156515500Y-138277352D01*
X156515500Y-138072648D01*
X156483477Y-137870466D01*
X156420220Y-137675781D01*
X156420218Y-137675778D01*
X156420218Y-137675776D01*
X156386503Y-137609607D01*
X156327287Y-137493390D01*
X156319556Y-137482749D01*
X156206971Y-137327786D01*
X156062213Y-137183028D01*
X155896614Y-137062715D01*
X155890006Y-137059348D01*
X155803917Y-137015483D01*
X155753123Y-136967511D01*
X155736328Y-136899690D01*
X155758865Y-136833555D01*
X155803917Y-136794516D01*
X155896610Y-136747287D01*
X155917770Y-136731913D01*
X156062213Y-136626971D01*
X156062215Y-136626968D01*
X156062219Y-136626966D01*
X156206966Y-136482219D01*
X156206968Y-136482215D01*
X156206971Y-136482213D01*
X156259732Y-136409590D01*
X156327287Y-136316610D01*
X156420220Y-136134219D01*
X156483477Y-135939534D01*
X156515500Y-135737352D01*
X156515500Y-135532648D01*
X156483477Y-135330466D01*
X156420220Y-135135781D01*
X156420218Y-135135778D01*
X156420218Y-135135776D01*
X156365148Y-135027697D01*
X156327287Y-134953390D01*
X156319556Y-134942749D01*
X156206971Y-134787786D01*
X156062217Y-134643032D01*
X156062212Y-134643028D01*
X155968051Y-134574616D01*
X155925385Y-134519286D01*
X155919406Y-134449673D01*
X155952012Y-134387878D01*
X156001933Y-134356592D01*
X156084117Y-134329359D01*
X156084124Y-134329356D01*
X156233345Y-134237315D01*
X156357315Y-134113345D01*
X156449356Y-133964124D01*
X156449358Y-133964119D01*
X156504505Y-133797697D01*
X156504506Y-133797690D01*
X156514999Y-133694986D01*
X156515000Y-133694973D01*
X156515000Y-133345000D01*
X155530686Y-133345000D01*
X155535080Y-133340606D01*
X155587741Y-133249394D01*
X155615000Y-133147661D01*
X155615000Y-133042339D01*
X155601685Y-132992648D01*
X161534500Y-132992648D01*
X161534500Y-133197351D01*
X161566522Y-133399534D01*
X161629781Y-133594223D01*
X161722715Y-133776613D01*
X161843028Y-133942213D01*
X161987786Y-134086971D01*
X162142749Y-134199556D01*
X162153390Y-134207287D01*
X162244840Y-134253883D01*
X162246080Y-134254515D01*
X162296876Y-134302490D01*
X162313671Y-134370311D01*
X162291134Y-134436446D01*
X162246080Y-134475485D01*
X162153386Y-134522715D01*
X161987786Y-134643028D01*
X161843028Y-134787786D01*
X161722715Y-134953386D01*
X161629781Y-135135776D01*
X161566522Y-135330465D01*
X161534500Y-135532648D01*
X161534500Y-135737351D01*
X161566522Y-135939534D01*
X161629781Y-136134223D01*
X161722715Y-136316613D01*
X161843028Y-136482213D01*
X161987786Y-136626971D01*
X162142749Y-136739556D01*
X162153390Y-136747287D01*
X162244840Y-136793883D01*
X162246080Y-136794515D01*
X162296876Y-136842490D01*
X162313671Y-136910311D01*
X162291134Y-136976446D01*
X162246080Y-137015485D01*
X162153386Y-137062715D01*
X161987786Y-137183028D01*
X161843028Y-137327786D01*
X161722715Y-137493386D01*
X161629781Y-137675776D01*
X161566522Y-137870465D01*
X161534500Y-138072648D01*
X161534500Y-138277351D01*
X161566522Y-138479534D01*
X161629781Y-138674223D01*
X161722715Y-138856613D01*
X161843028Y-139022213D01*
X161987786Y-139166971D01*
X162142749Y-139279556D01*
X162153390Y-139287287D01*
X162244840Y-139333883D01*
X162246080Y-139334515D01*
X162296876Y-139382490D01*
X162313671Y-139450311D01*
X162291134Y-139516446D01*
X162246080Y-139555485D01*
X162153386Y-139602715D01*
X161987786Y-139723028D01*
X161843028Y-139867786D01*
X161722715Y-140033386D01*
X161629781Y-140215776D01*
X161566522Y-140410465D01*
X161534500Y-140612648D01*
X161534500Y-140817351D01*
X161566522Y-141019534D01*
X161629781Y-141214223D01*
X161693691Y-141339653D01*
X161711306Y-141374223D01*
X161722715Y-141396613D01*
X161843028Y-141562213D01*
X161987786Y-141706971D01*
X162142749Y-141819556D01*
X162153390Y-141827287D01*
X162269607Y-141886503D01*
X162335776Y-141920218D01*
X162335778Y-141920218D01*
X162335781Y-141920220D01*
X162440137Y-141954127D01*
X162530465Y-141983477D01*
X162631557Y-141999488D01*
X162732648Y-142015500D01*
X162732649Y-142015500D01*
X162937351Y-142015500D01*
X162937352Y-142015500D01*
X163139534Y-141983477D01*
X163334219Y-141920220D01*
X163516610Y-141827287D01*
X163631085Y-141744117D01*
X163682213Y-141706971D01*
X163682215Y-141706968D01*
X163682219Y-141706966D01*
X163826966Y-141562219D01*
X163826968Y-141562215D01*
X163826971Y-141562213D01*
X163890344Y-141474986D01*
X163947287Y-141396610D01*
X164040220Y-141214219D01*
X164103477Y-141019534D01*
X164135500Y-140817352D01*
X164135500Y-140612648D01*
X164103477Y-140410466D01*
X164040220Y-140215781D01*
X164040218Y-140215778D01*
X164040218Y-140215776D01*
X163994884Y-140126804D01*
X163947287Y-140033390D01*
X163939556Y-140022749D01*
X163826971Y-139867786D01*
X163682213Y-139723028D01*
X163516614Y-139602715D01*
X163462220Y-139575000D01*
X163423917Y-139555483D01*
X163373123Y-139507511D01*
X163356328Y-139439690D01*
X163378865Y-139373555D01*
X163423917Y-139334516D01*
X163516610Y-139287287D01*
X163537770Y-139271913D01*
X163682213Y-139166971D01*
X163682215Y-139166968D01*
X163682219Y-139166966D01*
X163826966Y-139022219D01*
X163826968Y-139022215D01*
X163826971Y-139022213D01*
X163879732Y-138949590D01*
X163947287Y-138856610D01*
X164040220Y-138674219D01*
X164103477Y-138479534D01*
X164135500Y-138277352D01*
X164135500Y-138072648D01*
X164103477Y-137870466D01*
X164040220Y-137675781D01*
X164040218Y-137675778D01*
X164040218Y-137675776D01*
X164006503Y-137609607D01*
X163947287Y-137493390D01*
X163939556Y-137482749D01*
X163826971Y-137327786D01*
X163682213Y-137183028D01*
X163516614Y-137062715D01*
X163510006Y-137059348D01*
X163423917Y-137015483D01*
X163373123Y-136967511D01*
X163356328Y-136899690D01*
X163378865Y-136833555D01*
X163423917Y-136794516D01*
X163516610Y-136747287D01*
X163537770Y-136731913D01*
X163682213Y-136626971D01*
X163682215Y-136626968D01*
X163682219Y-136626966D01*
X163826966Y-136482219D01*
X163826968Y-136482215D01*
X163826971Y-136482213D01*
X163879732Y-136409590D01*
X163947287Y-136316610D01*
X164040220Y-136134219D01*
X164103477Y-135939534D01*
X164135500Y-135737352D01*
X164135500Y-135532648D01*
X164103477Y-135330466D01*
X164040220Y-135135781D01*
X164040218Y-135135778D01*
X164040218Y-135135776D01*
X163985148Y-135027697D01*
X163947287Y-134953390D01*
X163939556Y-134942749D01*
X163826971Y-134787786D01*
X163682213Y-134643028D01*
X163516614Y-134522715D01*
X163509884Y-134519286D01*
X163423917Y-134475483D01*
X163373123Y-134427511D01*
X163356328Y-134359690D01*
X163378865Y-134293555D01*
X163423917Y-134254516D01*
X163516610Y-134207287D01*
X163537770Y-134191913D01*
X163682213Y-134086971D01*
X163682215Y-134086968D01*
X163682219Y-134086966D01*
X163826966Y-133942219D01*
X163826968Y-133942215D01*
X163826971Y-133942213D01*
X163911566Y-133825776D01*
X163947287Y-133776610D01*
X164040220Y-133594219D01*
X164103477Y-133399534D01*
X164135500Y-133197352D01*
X164135500Y-132992648D01*
X164127257Y-132940606D01*
X164103477Y-132790465D01*
X164040218Y-132595776D01*
X164006503Y-132529607D01*
X163947287Y-132413390D01*
X163931966Y-132392302D01*
X163826971Y-132247786D01*
X163682213Y-132103028D01*
X163516613Y-131982715D01*
X163516612Y-131982714D01*
X163516610Y-131982713D01*
X163457675Y-131952684D01*
X163334223Y-131889781D01*
X163139534Y-131826522D01*
X162964995Y-131798878D01*
X162937352Y-131794500D01*
X162732648Y-131794500D01*
X162708329Y-131798351D01*
X162530465Y-131826522D01*
X162335776Y-131889781D01*
X162153386Y-131982715D01*
X161987786Y-132103028D01*
X161843028Y-132247786D01*
X161722715Y-132413386D01*
X161629781Y-132595776D01*
X161566522Y-132790465D01*
X161534500Y-132992648D01*
X155601685Y-132992648D01*
X155587741Y-132940606D01*
X155535080Y-132849394D01*
X155530686Y-132845000D01*
X156514999Y-132845000D01*
X156514999Y-132495028D01*
X156514998Y-132495013D01*
X156504505Y-132392302D01*
X156449358Y-132225880D01*
X156449356Y-132225875D01*
X156357315Y-132076654D01*
X156233345Y-131952684D01*
X156084124Y-131860643D01*
X156084119Y-131860641D01*
X155917697Y-131805494D01*
X155917690Y-131805493D01*
X155814986Y-131795000D01*
X155465000Y-131795000D01*
X155465000Y-132779314D01*
X155460606Y-132774920D01*
X155369394Y-132722259D01*
X155267661Y-132695000D01*
X155162339Y-132695000D01*
X155060606Y-132722259D01*
X154969394Y-132774920D01*
X154965000Y-132779314D01*
X154965000Y-131795000D01*
X154615028Y-131795000D01*
X154615012Y-131795001D01*
X154512302Y-131805494D01*
X154345880Y-131860641D01*
X154345875Y-131860643D01*
X154196654Y-131952684D01*
X154072684Y-132076654D01*
X153980643Y-132225875D01*
X153980641Y-132225880D01*
X153925494Y-132392302D01*
X153925493Y-132392309D01*
X153915000Y-132495013D01*
X153915000Y-132845000D01*
X154899314Y-132845000D01*
X154894920Y-132849394D01*
X154842259Y-132940606D01*
X154815000Y-133042339D01*
X154815000Y-133147661D01*
X154842259Y-133249394D01*
X154894920Y-133340606D01*
X154899314Y-133345000D01*
X153915001Y-133345000D01*
X153915001Y-133694986D01*
X153925494Y-133797697D01*
X153980641Y-133964119D01*
X153980643Y-133964124D01*
X154072684Y-134113345D01*
X154196654Y-134237315D01*
X154345875Y-134329356D01*
X154345882Y-134329359D01*
X154428067Y-134356592D01*
X154485512Y-134396364D01*
X154512336Y-134460880D01*
X154500021Y-134529656D01*
X154461949Y-134574616D01*
X154367787Y-134643028D01*
X154367782Y-134643032D01*
X154223028Y-134787786D01*
X154102715Y-134953386D01*
X154009781Y-135135776D01*
X153946522Y-135330465D01*
X153914500Y-135532648D01*
X152106521Y-135532648D01*
X152113994Y-135530220D01*
X152296385Y-135437287D01*
X152296389Y-135437284D01*
X152309916Y-135427457D01*
X152309916Y-135427456D01*
X152461987Y-135316971D01*
X152461985Y-135316971D01*
X152461994Y-135316966D01*
X152606741Y-135172219D01*
X152606743Y-135172215D01*
X152606746Y-135172213D01*
X152659507Y-135099590D01*
X152727062Y-135006610D01*
X152819995Y-134824219D01*
X152883252Y-134629534D01*
X152915275Y-134427352D01*
X152915275Y-134222648D01*
X152893785Y-134086966D01*
X152883252Y-134020465D01*
X152819993Y-133825776D01*
X152768651Y-133725013D01*
X152727062Y-133643390D01*
X152711741Y-133622302D01*
X152606746Y-133477786D01*
X152461988Y-133333028D01*
X152296388Y-133212715D01*
X152296387Y-133212714D01*
X152296385Y-133212713D01*
X152113994Y-133119780D01*
X152015496Y-133087776D01*
X151919309Y-133056522D01*
X151744770Y-133028878D01*
X151717127Y-133024500D01*
X151512423Y-133024500D01*
X151488104Y-133028351D01*
X151310240Y-133056522D01*
X151115551Y-133119781D01*
X150933161Y-133212715D01*
X150767561Y-133333028D01*
X150622807Y-133477782D01*
X150581862Y-133534139D01*
X150526532Y-133576804D01*
X150456919Y-133582783D01*
X150395124Y-133550177D01*
X150363838Y-133500256D01*
X150349134Y-133455882D01*
X150349131Y-133455875D01*
X150257090Y-133306654D01*
X150133120Y-133182684D01*
X149983899Y-133090643D01*
X149983894Y-133090641D01*
X149817472Y-133035494D01*
X149817465Y-133035493D01*
X149714761Y-133025000D01*
X149364775Y-133025000D01*
X149364775Y-134009314D01*
X149360381Y-134004920D01*
X149269169Y-133952259D01*
X149167436Y-133925000D01*
X149062114Y-133925000D01*
X148960381Y-133952259D01*
X148869169Y-134004920D01*
X148864775Y-134009314D01*
X148864775Y-133025000D01*
X148514803Y-133025000D01*
X148514787Y-133025001D01*
X148412077Y-133035494D01*
X148245655Y-133090641D01*
X148245650Y-133090643D01*
X148096429Y-133182684D01*
X147972459Y-133306654D01*
X147880418Y-133455875D01*
X147880416Y-133455880D01*
X147825269Y-133622302D01*
X147825268Y-133622309D01*
X147814775Y-133725013D01*
X142000500Y-133725013D01*
X142000500Y-128922648D01*
X147274500Y-128922648D01*
X147274500Y-129127351D01*
X147306522Y-129329534D01*
X147369781Y-129524223D01*
X147462715Y-129706613D01*
X147583028Y-129872213D01*
X147727786Y-130016971D01*
X147882749Y-130129556D01*
X147893390Y-130137287D01*
X148009607Y-130196503D01*
X148075776Y-130230218D01*
X148075778Y-130230218D01*
X148075781Y-130230220D01*
X148180137Y-130264127D01*
X148270465Y-130293477D01*
X148371557Y-130309488D01*
X148472648Y-130325500D01*
X148472649Y-130325500D01*
X148677351Y-130325500D01*
X148677352Y-130325500D01*
X148879534Y-130293477D01*
X149074219Y-130230220D01*
X149256610Y-130137287D01*
X149349590Y-130069732D01*
X149422213Y-130016971D01*
X149422215Y-130016968D01*
X149422219Y-130016966D01*
X149566966Y-129872219D01*
X149566968Y-129872215D01*
X149566971Y-129872213D01*
X149619732Y-129799590D01*
X149687287Y-129706610D01*
X149780220Y-129524219D01*
X149843477Y-129329534D01*
X149875500Y-129127352D01*
X149875500Y-128922648D01*
X157434500Y-128922648D01*
X157434500Y-129127351D01*
X157466522Y-129329534D01*
X157529781Y-129524223D01*
X157622715Y-129706613D01*
X157743028Y-129872213D01*
X157887786Y-130016971D01*
X158042749Y-130129556D01*
X158053390Y-130137287D01*
X158169607Y-130196503D01*
X158235776Y-130230218D01*
X158235778Y-130230218D01*
X158235781Y-130230220D01*
X158340137Y-130264127D01*
X158430465Y-130293477D01*
X158531557Y-130309488D01*
X158632648Y-130325500D01*
X158632649Y-130325500D01*
X158837351Y-130325500D01*
X158837352Y-130325500D01*
X159039534Y-130293477D01*
X159234219Y-130230220D01*
X159416610Y-130137287D01*
X159509590Y-130069732D01*
X159582213Y-130016971D01*
X159582215Y-130016968D01*
X159582219Y-130016966D01*
X159726966Y-129872219D01*
X159726968Y-129872215D01*
X159726971Y-129872213D01*
X159779732Y-129799590D01*
X159847287Y-129706610D01*
X159940220Y-129524219D01*
X160003477Y-129329534D01*
X160035500Y-129127352D01*
X160035500Y-128922648D01*
X160003477Y-128720466D01*
X159940220Y-128525781D01*
X159940218Y-128525778D01*
X159940218Y-128525776D01*
X159906503Y-128459607D01*
X159847287Y-128343390D01*
X159839556Y-128332749D01*
X159726971Y-128177786D01*
X159582213Y-128033028D01*
X159416613Y-127912715D01*
X159416612Y-127912714D01*
X159416610Y-127912713D01*
X159359653Y-127883691D01*
X159234223Y-127819781D01*
X159039534Y-127756522D01*
X158864995Y-127728878D01*
X158837352Y-127724500D01*
X158632648Y-127724500D01*
X158608329Y-127728351D01*
X158430465Y-127756522D01*
X158235776Y-127819781D01*
X158053386Y-127912715D01*
X157887786Y-128033028D01*
X157743028Y-128177786D01*
X157622715Y-128343386D01*
X157529781Y-128525776D01*
X157466522Y-128720465D01*
X157434500Y-128922648D01*
X149875500Y-128922648D01*
X149843477Y-128720466D01*
X149780220Y-128525781D01*
X149780218Y-128525778D01*
X149780218Y-128525776D01*
X149746503Y-128459607D01*
X149687287Y-128343390D01*
X149679556Y-128332749D01*
X149566971Y-128177786D01*
X149422213Y-128033028D01*
X149256613Y-127912715D01*
X149256612Y-127912714D01*
X149256610Y-127912713D01*
X149199653Y-127883691D01*
X149074223Y-127819781D01*
X148879534Y-127756522D01*
X148704995Y-127728878D01*
X148677352Y-127724500D01*
X148472648Y-127724500D01*
X148448329Y-127728351D01*
X148270465Y-127756522D01*
X148075776Y-127819781D01*
X147893386Y-127912715D01*
X147727786Y-128033028D01*
X147583028Y-128177786D01*
X147462715Y-128343386D01*
X147369781Y-128525776D01*
X147306522Y-128720465D01*
X147274500Y-128922648D01*
X142000500Y-128922648D01*
X142000500Y-125624500D01*
X142020185Y-125557461D01*
X142072989Y-125511706D01*
X142124500Y-125500500D01*
X168875500Y-125500500D01*
X168942539Y-125520185D01*
G37*
%TD.AperFunction*%
%TD*%
M02*
