%TF.GenerationSoftware,KiCad,Pcbnew,10.0.1*%
%TF.CreationDate,2026-04-29T10:34:41+05:30*%
%TF.ProjectId,MCU_Board,4d43555f-426f-4617-9264-2e6b69636164,rev?*%
%TF.SameCoordinates,Original*%
%TF.FileFunction,Copper,L2,Inr*%
%TF.FilePolarity,Positive*%
%FSLAX46Y46*%
G04 Gerber Fmt 4.6, Leading zero omitted, Abs format (unit mm)*
G04 Created by KiCad (PCBNEW 10.0.1) date 2026-04-29 10:34:41*
%MOMM*%
%LPD*%
G01*
G04 APERTURE LIST*
G04 Aperture macros list*
%AMRoundRect*
0 Rectangle with rounded corners*
0 $1 Rounding radius*
0 $2 $3 $4 $5 $6 $7 $8 $9 X,Y pos of 4 corners*
0 Add a 4 corners polygon primitive as box body*
4,1,4,$2,$3,$4,$5,$6,$7,$8,$9,$2,$3,0*
0 Add four circle primitives for the rounded corners*
1,1,$1+$1,$2,$3*
1,1,$1+$1,$4,$5*
1,1,$1+$1,$6,$7*
1,1,$1+$1,$8,$9*
0 Add four rect primitives between the rounded corners*
20,1,$1+$1,$2,$3,$4,$5,0*
20,1,$1+$1,$4,$5,$6,$7,0*
20,1,$1+$1,$6,$7,$8,$9,0*
20,1,$1+$1,$8,$9,$2,$3,0*%
G04 Aperture macros list end*
%TA.AperFunction,ComponentPad*%
%ADD10RoundRect,0.250000X-0.550000X-0.550000X0.550000X-0.550000X0.550000X0.550000X-0.550000X0.550000X0*%
%TD*%
%TA.AperFunction,ComponentPad*%
%ADD11C,1.600000*%
%TD*%
%TA.AperFunction,ComponentPad*%
%ADD12R,1.800000X1.800000*%
%TD*%
%TA.AperFunction,ComponentPad*%
%ADD13C,1.800000*%
%TD*%
G04 APERTURE END LIST*
D10*
%TO.N,VCC*%
%TO.C,U1*%
X155215000Y-133095000D03*
D11*
%TO.N,unconnected-(U1-XTAL1{slash}PB3-Pad2)*%
X155215000Y-135635000D03*
%TO.N,unconnected-(U1-NC-Pad3)*%
X155215000Y-138175000D03*
%TO.N,unconnected-(U1-NC-Pad4)*%
X155215000Y-140715000D03*
%TO.N,unconnected-(U1-XTAL2{slash}PB4-Pad5)*%
X162835000Y-140715000D03*
%TO.N,unconnected-(U1-NC-Pad6)*%
X162835000Y-138175000D03*
%TO.N,unconnected-(U1-NC-Pad7)*%
X162835000Y-135635000D03*
%TO.N,GND*%
X162835000Y-133095000D03*
%TD*%
%TO.N,Net-(U1-AREF{slash}PB0)*%
%TO.C,R1*%
X148575000Y-129025000D03*
%TO.N,Net-(D1-K)*%
X158735000Y-129025000D03*
%TD*%
D12*
%TO.N,Net-(D1-K)*%
%TO.C,D1*%
X156095000Y-146495000D03*
D13*
%TO.N,GND*%
X158635000Y-146495000D03*
%TD*%
D10*
%TO.N,VCC*%
%TO.C,C2*%
X149114775Y-140875000D03*
D11*
%TO.N,GND*%
X151614775Y-140875000D03*
%TD*%
D10*
%TO.N,VCC*%
%TO.C,C1*%
X149114775Y-134325000D03*
D11*
%TO.N,GND*%
X151614775Y-134325000D03*
%TD*%
%TA.AperFunction,Conductor*%
%TO.N,GND*%
G36*
X168942539Y-125520185D02*
G01*
X168988294Y-125572989D01*
X168999500Y-125624500D01*
X168999500Y-151375500D01*
X168979815Y-151442539D01*
X168927011Y-151488294D01*
X168875500Y-151499500D01*
X142124500Y-151499500D01*
X142057461Y-151479815D01*
X142011706Y-151427011D01*
X142000500Y-151375500D01*
X142000500Y-145547135D01*
X154694500Y-145547135D01*
X154694500Y-147442870D01*
X154694501Y-147442876D01*
X154700908Y-147502483D01*
X154751202Y-147637328D01*
X154751206Y-147637335D01*
X154837452Y-147752544D01*
X154837455Y-147752547D01*
X154952664Y-147838793D01*
X154952671Y-147838797D01*
X155087517Y-147889091D01*
X155087516Y-147889091D01*
X155094444Y-147889835D01*
X155147127Y-147895500D01*
X157042872Y-147895499D01*
X157102483Y-147889091D01*
X157237331Y-147838796D01*
X157352546Y-147752546D01*
X157438796Y-147637331D01*
X157489091Y-147502483D01*
X157495500Y-147442873D01*
X157495499Y-147332304D01*
X157515183Y-147265268D01*
X157531818Y-147244626D01*
X158192861Y-146583584D01*
X158215667Y-146668694D01*
X158274910Y-146771306D01*
X158358694Y-146855090D01*
X158461306Y-146914333D01*
X158546414Y-146937137D01*
X157837485Y-147646065D01*
X157837485Y-147646066D01*
X157901243Y-147692388D01*
X158097589Y-147792432D01*
X158307164Y-147860526D01*
X158524819Y-147895000D01*
X158745181Y-147895000D01*
X158962835Y-147860526D01*
X159172410Y-147792432D01*
X159368760Y-147692386D01*
X159432513Y-147646066D01*
X159432514Y-147646066D01*
X158723585Y-146937138D01*
X158808694Y-146914333D01*
X158911306Y-146855090D01*
X158995090Y-146771306D01*
X159054333Y-146668694D01*
X159077137Y-146583585D01*
X159786066Y-147292514D01*
X159786066Y-147292513D01*
X159832386Y-147228760D01*
X159932432Y-147032410D01*
X160000526Y-146822835D01*
X160035000Y-146605181D01*
X160035000Y-146384818D01*
X160000526Y-146167164D01*
X159932432Y-145957589D01*
X159832388Y-145761243D01*
X159786066Y-145697485D01*
X159786065Y-145697485D01*
X159077137Y-146406413D01*
X159054333Y-146321306D01*
X158995090Y-146218694D01*
X158911306Y-146134910D01*
X158808694Y-146075667D01*
X158723583Y-146052861D01*
X159432513Y-145343932D01*
X159368756Y-145297611D01*
X159172410Y-145197567D01*
X158962835Y-145129473D01*
X158745181Y-145095000D01*
X158524819Y-145095000D01*
X158307164Y-145129473D01*
X158097589Y-145197567D01*
X157901233Y-145297616D01*
X157837485Y-145343931D01*
X157837485Y-145343932D01*
X158546414Y-146052861D01*
X158461306Y-146075667D01*
X158358694Y-146134910D01*
X158274910Y-146218694D01*
X158215667Y-146321306D01*
X158192861Y-146406414D01*
X157531818Y-145745371D01*
X157498333Y-145684048D01*
X157495499Y-145657690D01*
X157495499Y-145547129D01*
X157495498Y-145547123D01*
X157495497Y-145547116D01*
X157489091Y-145487517D01*
X157438796Y-145352669D01*
X157438795Y-145352668D01*
X157438793Y-145352664D01*
X157352547Y-145237455D01*
X157352544Y-145237452D01*
X157237335Y-145151206D01*
X157237328Y-145151202D01*
X157102482Y-145100908D01*
X157102483Y-145100908D01*
X157042883Y-145094501D01*
X157042881Y-145094500D01*
X157042873Y-145094500D01*
X157042864Y-145094500D01*
X155147129Y-145094500D01*
X155147123Y-145094501D01*
X155087516Y-145100908D01*
X154952671Y-145151202D01*
X154952664Y-145151206D01*
X154837455Y-145237452D01*
X154837452Y-145237455D01*
X154751206Y-145352664D01*
X154751202Y-145352671D01*
X154700908Y-145487517D01*
X154694501Y-145547116D01*
X154694501Y-145547123D01*
X154694500Y-145547135D01*
X142000500Y-145547135D01*
X142000500Y-140274983D01*
X147814275Y-140274983D01*
X147814275Y-141475001D01*
X147814276Y-141475018D01*
X147824775Y-141577796D01*
X147824776Y-141577799D01*
X147840456Y-141625116D01*
X147879961Y-141744334D01*
X147972063Y-141893656D01*
X148096119Y-142017712D01*
X148245441Y-142109814D01*
X148411978Y-142164999D01*
X148514766Y-142175500D01*
X149714783Y-142175499D01*
X149817572Y-142164999D01*
X149984109Y-142109814D01*
X150133431Y-142017712D01*
X150257487Y-141893656D01*
X150349589Y-141744334D01*
X150372877Y-141674054D01*
X150376885Y-141666050D01*
X150394835Y-141646772D01*
X150409830Y-141625116D01*
X150418270Y-141621606D01*
X150424500Y-141614917D01*
X150450024Y-141608404D01*
X150474346Y-141598292D01*
X150490609Y-141598048D01*
X150492200Y-141597643D01*
X150493298Y-141598008D01*
X150497494Y-141597946D01*
X150535300Y-141600921D01*
X151214775Y-140921446D01*
X151214775Y-140927661D01*
X151242034Y-141029394D01*
X151294695Y-141120606D01*
X151369169Y-141195080D01*
X151460381Y-141247741D01*
X151562114Y-141275000D01*
X151568328Y-141275000D01*
X150888851Y-141954474D01*
X150933425Y-141986859D01*
X151115743Y-142079755D01*
X151310357Y-142142990D01*
X151512458Y-142175000D01*
X151717092Y-142175000D01*
X151919192Y-142142990D01*
X152113806Y-142079755D01*
X152296124Y-141986859D01*
X152340696Y-141954474D01*
X151661222Y-141275000D01*
X151667436Y-141275000D01*
X151769169Y-141247741D01*
X151860381Y-141195080D01*
X151934855Y-141120606D01*
X151987516Y-141029394D01*
X152014775Y-140927661D01*
X152014775Y-140921447D01*
X152694249Y-141600921D01*
X152726634Y-141556349D01*
X152819530Y-141374031D01*
X152882765Y-141179417D01*
X152914775Y-140977317D01*
X152914775Y-140772682D01*
X152882765Y-140570582D01*
X152819530Y-140375968D01*
X152726634Y-140193650D01*
X152694249Y-140149077D01*
X152694249Y-140149076D01*
X152014775Y-140828551D01*
X152014775Y-140822339D01*
X151987516Y-140720606D01*
X151934855Y-140629394D01*
X151860381Y-140554920D01*
X151769169Y-140502259D01*
X151667436Y-140475000D01*
X151661221Y-140475000D01*
X152340697Y-139795524D01*
X152340696Y-139795523D01*
X152296134Y-139763147D01*
X152296125Y-139763141D01*
X152113806Y-139670244D01*
X151919192Y-139607009D01*
X151717092Y-139575000D01*
X151512458Y-139575000D01*
X151310357Y-139607009D01*
X151115743Y-139670244D01*
X150933419Y-139763143D01*
X150888852Y-139795523D01*
X150888852Y-139795524D01*
X151568329Y-140475000D01*
X151562114Y-140475000D01*
X151460381Y-140502259D01*
X151369169Y-140554920D01*
X151294695Y-140629394D01*
X151242034Y-140720606D01*
X151214775Y-140822339D01*
X151214775Y-140828553D01*
X150535299Y-140149077D01*
X150497494Y-140152053D01*
X150429116Y-140137689D01*
X150379359Y-140088638D01*
X150376885Y-140083949D01*
X150372876Y-140075942D01*
X150349589Y-140005666D01*
X150257487Y-139856344D01*
X150133431Y-139732288D01*
X149984109Y-139640186D01*
X149817572Y-139585001D01*
X149817570Y-139585000D01*
X149714785Y-139574500D01*
X148514773Y-139574500D01*
X148514756Y-139574501D01*
X148411978Y-139585000D01*
X148411975Y-139585001D01*
X148245443Y-139640185D01*
X148245438Y-139640187D01*
X148096117Y-139732289D01*
X147972064Y-139856342D01*
X147879962Y-140005663D01*
X147879961Y-140005666D01*
X147824776Y-140172203D01*
X147824776Y-140172204D01*
X147824775Y-140172204D01*
X147814275Y-140274983D01*
X142000500Y-140274983D01*
X142000500Y-133724983D01*
X147814275Y-133724983D01*
X147814275Y-134925001D01*
X147814276Y-134925018D01*
X147824775Y-135027796D01*
X147824776Y-135027799D01*
X147840456Y-135075116D01*
X147879961Y-135194334D01*
X147972063Y-135343656D01*
X148096119Y-135467712D01*
X148245441Y-135559814D01*
X148411978Y-135614999D01*
X148514766Y-135625500D01*
X149714783Y-135625499D01*
X149817572Y-135614999D01*
X149984109Y-135559814D01*
X150133431Y-135467712D01*
X150257487Y-135343656D01*
X150349589Y-135194334D01*
X150372877Y-135124054D01*
X150376885Y-135116050D01*
X150394835Y-135096772D01*
X150409830Y-135075116D01*
X150418270Y-135071606D01*
X150424500Y-135064917D01*
X150450024Y-135058404D01*
X150474346Y-135048292D01*
X150490609Y-135048048D01*
X150492200Y-135047643D01*
X150493298Y-135048008D01*
X150497494Y-135047946D01*
X150535300Y-135050921D01*
X151214775Y-134371446D01*
X151214775Y-134377661D01*
X151242034Y-134479394D01*
X151294695Y-134570606D01*
X151369169Y-134645080D01*
X151460381Y-134697741D01*
X151562114Y-134725000D01*
X151568328Y-134725000D01*
X150888851Y-135404474D01*
X150933425Y-135436859D01*
X151115743Y-135529755D01*
X151310357Y-135592990D01*
X151512458Y-135625000D01*
X151717092Y-135625000D01*
X151919192Y-135592990D01*
X152113806Y-135529755D01*
X152296124Y-135436859D01*
X152340696Y-135404474D01*
X151661222Y-134725000D01*
X151667436Y-134725000D01*
X151769169Y-134697741D01*
X151860381Y-134645080D01*
X151934855Y-134570606D01*
X151987516Y-134479394D01*
X152014775Y-134377661D01*
X152014775Y-134371447D01*
X152694249Y-135050921D01*
X152726634Y-135006349D01*
X152819530Y-134824031D01*
X152882765Y-134629417D01*
X152914775Y-134427317D01*
X152914775Y-134222682D01*
X152882765Y-134020582D01*
X152819530Y-133825968D01*
X152726634Y-133643650D01*
X152694249Y-133599077D01*
X152694249Y-133599076D01*
X152014775Y-134278551D01*
X152014775Y-134272339D01*
X151987516Y-134170606D01*
X151934855Y-134079394D01*
X151860381Y-134004920D01*
X151769169Y-133952259D01*
X151667436Y-133925000D01*
X151661221Y-133925000D01*
X152340697Y-133245524D01*
X152340696Y-133245523D01*
X152296134Y-133213147D01*
X152296125Y-133213141D01*
X152113806Y-133120244D01*
X151919192Y-133057009D01*
X151717092Y-133025000D01*
X151512458Y-133025000D01*
X151310357Y-133057009D01*
X151115743Y-133120244D01*
X150933419Y-133213143D01*
X150888852Y-133245523D01*
X150888852Y-133245524D01*
X151568329Y-133925000D01*
X151562114Y-133925000D01*
X151460381Y-133952259D01*
X151369169Y-134004920D01*
X151294695Y-134079394D01*
X151242034Y-134170606D01*
X151214775Y-134272339D01*
X151214775Y-134278553D01*
X150535299Y-133599077D01*
X150497494Y-133602053D01*
X150429116Y-133587689D01*
X150379359Y-133538638D01*
X150376885Y-133533949D01*
X150372876Y-133525942D01*
X150349589Y-133455666D01*
X150257487Y-133306344D01*
X150133431Y-133182288D01*
X150032841Y-133120244D01*
X149984111Y-133090187D01*
X149984106Y-133090185D01*
X149982637Y-133089698D01*
X149817572Y-133035001D01*
X149817570Y-133035000D01*
X149714785Y-133024500D01*
X148514773Y-133024500D01*
X148514756Y-133024501D01*
X148411978Y-133035000D01*
X148411975Y-133035001D01*
X148245443Y-133090185D01*
X148245438Y-133090187D01*
X148096117Y-133182289D01*
X147972064Y-133306342D01*
X147879962Y-133455663D01*
X147879960Y-133455668D01*
X147866927Y-133495000D01*
X147824776Y-133622203D01*
X147824776Y-133622204D01*
X147824775Y-133622204D01*
X147814275Y-133724983D01*
X142000500Y-133724983D01*
X142000500Y-132494983D01*
X153914500Y-132494983D01*
X153914500Y-133695001D01*
X153914501Y-133695018D01*
X153925000Y-133797796D01*
X153925001Y-133797799D01*
X153980185Y-133964331D01*
X153980187Y-133964336D01*
X154005219Y-134004920D01*
X154072288Y-134113656D01*
X154196344Y-134237712D01*
X154345666Y-134329814D01*
X154427570Y-134356954D01*
X154485015Y-134396727D01*
X154511838Y-134461243D01*
X154499523Y-134530018D01*
X154461451Y-134574978D01*
X154367787Y-134643028D01*
X154367782Y-134643032D01*
X154223028Y-134787786D01*
X154102715Y-134953386D01*
X154009781Y-135135776D01*
X153946522Y-135330465D01*
X153914500Y-135532648D01*
X153914500Y-135737351D01*
X153946522Y-135939534D01*
X154009781Y-136134223D01*
X154102715Y-136316613D01*
X154223028Y-136482213D01*
X154367786Y-136626971D01*
X154522749Y-136739556D01*
X154533390Y-136747287D01*
X154624840Y-136793883D01*
X154626080Y-136794515D01*
X154676876Y-136842490D01*
X154693671Y-136910311D01*
X154671134Y-136976446D01*
X154626080Y-137015485D01*
X154533386Y-137062715D01*
X154367786Y-137183028D01*
X154223028Y-137327786D01*
X154102715Y-137493386D01*
X154009781Y-137675776D01*
X153946522Y-137870465D01*
X153914500Y-138072648D01*
X153914500Y-138277351D01*
X153946522Y-138479534D01*
X154009781Y-138674223D01*
X154102715Y-138856613D01*
X154223028Y-139022213D01*
X154367786Y-139166971D01*
X154522749Y-139279556D01*
X154533390Y-139287287D01*
X154624840Y-139333883D01*
X154626080Y-139334515D01*
X154676876Y-139382490D01*
X154693671Y-139450311D01*
X154671134Y-139516446D01*
X154626080Y-139555485D01*
X154533386Y-139602715D01*
X154367786Y-139723028D01*
X154223028Y-139867786D01*
X154102715Y-140033386D01*
X154009781Y-140215776D01*
X153946522Y-140410465D01*
X153914500Y-140612648D01*
X153914500Y-140817351D01*
X153946522Y-141019534D01*
X154009781Y-141214223D01*
X154073691Y-141339653D01*
X154091208Y-141374031D01*
X154102715Y-141396613D01*
X154223028Y-141562213D01*
X154367786Y-141706971D01*
X154522749Y-141819556D01*
X154533390Y-141827287D01*
X154649607Y-141886503D01*
X154715776Y-141920218D01*
X154715778Y-141920218D01*
X154715781Y-141920220D01*
X154820137Y-141954127D01*
X154910465Y-141983477D01*
X155011557Y-141999488D01*
X155112648Y-142015500D01*
X155112649Y-142015500D01*
X155317351Y-142015500D01*
X155317352Y-142015500D01*
X155519534Y-141983477D01*
X155714219Y-141920220D01*
X155896610Y-141827287D01*
X156010790Y-141744331D01*
X156062213Y-141706971D01*
X156062215Y-141706968D01*
X156062219Y-141706966D01*
X156206966Y-141562219D01*
X156206968Y-141562215D01*
X156206971Y-141562213D01*
X156270333Y-141475001D01*
X156327287Y-141396610D01*
X156420220Y-141214219D01*
X156483477Y-141019534D01*
X156515500Y-140817352D01*
X156515500Y-140612648D01*
X156483477Y-140410466D01*
X156420220Y-140215781D01*
X156420218Y-140215778D01*
X156420218Y-140215776D01*
X156353048Y-140083949D01*
X156327287Y-140033390D01*
X156307146Y-140005668D01*
X156206971Y-139867786D01*
X156062213Y-139723028D01*
X155896614Y-139602715D01*
X155842220Y-139575000D01*
X155803917Y-139555483D01*
X155753123Y-139507511D01*
X155736328Y-139439690D01*
X155758865Y-139373555D01*
X155803917Y-139334516D01*
X155896610Y-139287287D01*
X155917770Y-139271913D01*
X156062213Y-139166971D01*
X156062215Y-139166968D01*
X156062219Y-139166966D01*
X156206966Y-139022219D01*
X156206968Y-139022215D01*
X156206971Y-139022213D01*
X156259732Y-138949590D01*
X156327287Y-138856610D01*
X156420220Y-138674219D01*
X156483477Y-138479534D01*
X156515500Y-138277352D01*
X156515500Y-138072648D01*
X156483477Y-137870466D01*
X156420220Y-137675781D01*
X156420218Y-137675778D01*
X156420218Y-137675776D01*
X156386503Y-137609607D01*
X156327287Y-137493390D01*
X156319556Y-137482749D01*
X156206971Y-137327786D01*
X156062213Y-137183028D01*
X155896614Y-137062715D01*
X155890006Y-137059348D01*
X155803917Y-137015483D01*
X155753123Y-136967511D01*
X155736328Y-136899690D01*
X155758865Y-136833555D01*
X155803917Y-136794516D01*
X155896610Y-136747287D01*
X155917770Y-136731913D01*
X156062213Y-136626971D01*
X156062215Y-136626968D01*
X156062219Y-136626966D01*
X156206966Y-136482219D01*
X156206968Y-136482215D01*
X156206971Y-136482213D01*
X156259732Y-136409590D01*
X156327287Y-136316610D01*
X156420220Y-136134219D01*
X156483477Y-135939534D01*
X156515500Y-135737352D01*
X156515500Y-135532648D01*
X161534500Y-135532648D01*
X161534500Y-135737351D01*
X161566522Y-135939534D01*
X161629781Y-136134223D01*
X161722715Y-136316613D01*
X161843028Y-136482213D01*
X161987786Y-136626971D01*
X162142749Y-136739556D01*
X162153390Y-136747287D01*
X162244840Y-136793883D01*
X162246080Y-136794515D01*
X162296876Y-136842490D01*
X162313671Y-136910311D01*
X162291134Y-136976446D01*
X162246080Y-137015485D01*
X162153386Y-137062715D01*
X161987786Y-137183028D01*
X161843028Y-137327786D01*
X161722715Y-137493386D01*
X161629781Y-137675776D01*
X161566522Y-137870465D01*
X161534500Y-138072648D01*
X161534500Y-138277351D01*
X161566522Y-138479534D01*
X161629781Y-138674223D01*
X161722715Y-138856613D01*
X161843028Y-139022213D01*
X161987786Y-139166971D01*
X162142749Y-139279556D01*
X162153390Y-139287287D01*
X162244840Y-139333883D01*
X162246080Y-139334515D01*
X162296876Y-139382490D01*
X162313671Y-139450311D01*
X162291134Y-139516446D01*
X162246080Y-139555485D01*
X162153386Y-139602715D01*
X161987786Y-139723028D01*
X161843028Y-139867786D01*
X161722715Y-140033386D01*
X161629781Y-140215776D01*
X161566522Y-140410465D01*
X161534500Y-140612648D01*
X161534500Y-140817351D01*
X161566522Y-141019534D01*
X161629781Y-141214223D01*
X161693691Y-141339653D01*
X161711208Y-141374031D01*
X161722715Y-141396613D01*
X161843028Y-141562213D01*
X161987786Y-141706971D01*
X162142749Y-141819556D01*
X162153390Y-141827287D01*
X162269607Y-141886503D01*
X162335776Y-141920218D01*
X162335778Y-141920218D01*
X162335781Y-141920220D01*
X162440137Y-141954127D01*
X162530465Y-141983477D01*
X162631557Y-141999488D01*
X162732648Y-142015500D01*
X162732649Y-142015500D01*
X162937351Y-142015500D01*
X162937352Y-142015500D01*
X163139534Y-141983477D01*
X163334219Y-141920220D01*
X163516610Y-141827287D01*
X163630790Y-141744331D01*
X163682213Y-141706971D01*
X163682215Y-141706968D01*
X163682219Y-141706966D01*
X163826966Y-141562219D01*
X163826968Y-141562215D01*
X163826971Y-141562213D01*
X163890333Y-141475001D01*
X163947287Y-141396610D01*
X164040220Y-141214219D01*
X164103477Y-141019534D01*
X164135500Y-140817352D01*
X164135500Y-140612648D01*
X164103477Y-140410466D01*
X164040220Y-140215781D01*
X164040218Y-140215778D01*
X164040218Y-140215776D01*
X163973048Y-140083949D01*
X163947287Y-140033390D01*
X163927146Y-140005668D01*
X163826971Y-139867786D01*
X163682213Y-139723028D01*
X163516614Y-139602715D01*
X163462220Y-139575000D01*
X163423917Y-139555483D01*
X163373123Y-139507511D01*
X163356328Y-139439690D01*
X163378865Y-139373555D01*
X163423917Y-139334516D01*
X163516610Y-139287287D01*
X163537770Y-139271913D01*
X163682213Y-139166971D01*
X163682215Y-139166968D01*
X163682219Y-139166966D01*
X163826966Y-139022219D01*
X163826968Y-139022215D01*
X163826971Y-139022213D01*
X163879732Y-138949590D01*
X163947287Y-138856610D01*
X164040220Y-138674219D01*
X164103477Y-138479534D01*
X164135500Y-138277352D01*
X164135500Y-138072648D01*
X164103477Y-137870466D01*
X164040220Y-137675781D01*
X164040218Y-137675778D01*
X164040218Y-137675776D01*
X164006503Y-137609607D01*
X163947287Y-137493390D01*
X163939556Y-137482749D01*
X163826971Y-137327786D01*
X163682213Y-137183028D01*
X163516614Y-137062715D01*
X163510006Y-137059348D01*
X163423917Y-137015483D01*
X163373123Y-136967511D01*
X163356328Y-136899690D01*
X163378865Y-136833555D01*
X163423917Y-136794516D01*
X163516610Y-136747287D01*
X163537770Y-136731913D01*
X163682213Y-136626971D01*
X163682215Y-136626968D01*
X163682219Y-136626966D01*
X163826966Y-136482219D01*
X163826968Y-136482215D01*
X163826971Y-136482213D01*
X163879732Y-136409590D01*
X163947287Y-136316610D01*
X164040220Y-136134219D01*
X164103477Y-135939534D01*
X164135500Y-135737352D01*
X164135500Y-135532648D01*
X164103477Y-135330466D01*
X164092535Y-135296791D01*
X164040218Y-135135776D01*
X164000794Y-135058404D01*
X163947287Y-134953390D01*
X163926667Y-134925009D01*
X163826971Y-134787786D01*
X163682213Y-134643028D01*
X163516611Y-134522713D01*
X163423369Y-134475203D01*
X163372574Y-134427229D01*
X163355779Y-134359407D01*
X163378317Y-134293273D01*
X163423371Y-134254234D01*
X163516346Y-134206861D01*
X163516347Y-134206861D01*
X163560921Y-134174474D01*
X162881447Y-133495000D01*
X162887661Y-133495000D01*
X162989394Y-133467741D01*
X163080606Y-133415080D01*
X163155080Y-133340606D01*
X163207741Y-133249394D01*
X163235000Y-133147661D01*
X163235000Y-133141448D01*
X163914474Y-133820922D01*
X163914474Y-133820921D01*
X163946859Y-133776349D01*
X164039755Y-133594031D01*
X164102990Y-133399417D01*
X164135000Y-133197317D01*
X164135000Y-132992682D01*
X164102990Y-132790582D01*
X164039755Y-132595968D01*
X163946859Y-132413650D01*
X163914474Y-132369077D01*
X163914474Y-132369076D01*
X163235000Y-133048551D01*
X163235000Y-133042339D01*
X163207741Y-132940606D01*
X163155080Y-132849394D01*
X163080606Y-132774920D01*
X162989394Y-132722259D01*
X162887661Y-132695000D01*
X162881446Y-132695000D01*
X163560922Y-132015524D01*
X163560921Y-132015523D01*
X163516359Y-131983147D01*
X163516350Y-131983141D01*
X163334031Y-131890244D01*
X163139417Y-131827009D01*
X162937317Y-131795000D01*
X162732683Y-131795000D01*
X162530582Y-131827009D01*
X162335968Y-131890244D01*
X162153644Y-131983143D01*
X162109077Y-132015523D01*
X162109077Y-132015524D01*
X162788554Y-132695000D01*
X162782339Y-132695000D01*
X162680606Y-132722259D01*
X162589394Y-132774920D01*
X162514920Y-132849394D01*
X162462259Y-132940606D01*
X162435000Y-133042339D01*
X162435000Y-133048553D01*
X161755524Y-132369077D01*
X161755523Y-132369077D01*
X161723143Y-132413644D01*
X161630244Y-132595968D01*
X161567009Y-132790582D01*
X161535000Y-132992682D01*
X161535000Y-133197317D01*
X161567009Y-133399417D01*
X161630244Y-133594031D01*
X161723141Y-133776350D01*
X161723147Y-133776359D01*
X161755523Y-133820921D01*
X161755524Y-133820922D01*
X162435000Y-133141446D01*
X162435000Y-133147661D01*
X162462259Y-133249394D01*
X162514920Y-133340606D01*
X162589394Y-133415080D01*
X162680606Y-133467741D01*
X162782339Y-133495000D01*
X162788553Y-133495000D01*
X162109076Y-134174474D01*
X162153652Y-134206861D01*
X162246628Y-134254234D01*
X162297425Y-134302208D01*
X162314220Y-134370029D01*
X162291683Y-134436164D01*
X162246630Y-134475203D01*
X162153388Y-134522713D01*
X161987786Y-134643028D01*
X161843028Y-134787786D01*
X161722715Y-134953386D01*
X161629781Y-135135776D01*
X161566522Y-135330465D01*
X161534500Y-135532648D01*
X156515500Y-135532648D01*
X156483477Y-135330466D01*
X156472535Y-135296791D01*
X156420218Y-135135776D01*
X156380794Y-135058404D01*
X156327287Y-134953390D01*
X156306667Y-134925009D01*
X156206971Y-134787786D01*
X156062219Y-134643034D01*
X156043477Y-134629417D01*
X155968547Y-134574978D01*
X155925882Y-134519649D01*
X155919903Y-134450036D01*
X155952508Y-134388240D01*
X156002426Y-134356955D01*
X156084334Y-134329814D01*
X156233656Y-134237712D01*
X156357712Y-134113656D01*
X156449814Y-133964334D01*
X156504999Y-133797797D01*
X156515500Y-133695009D01*
X156515499Y-132494992D01*
X156504999Y-132392203D01*
X156449814Y-132225666D01*
X156357712Y-132076344D01*
X156233656Y-131952288D01*
X156084334Y-131860186D01*
X155917797Y-131805001D01*
X155917795Y-131805000D01*
X155815010Y-131794500D01*
X154614998Y-131794500D01*
X154614981Y-131794501D01*
X154512203Y-131805000D01*
X154512200Y-131805001D01*
X154345668Y-131860185D01*
X154345663Y-131860187D01*
X154196342Y-131952289D01*
X154072289Y-132076342D01*
X153980187Y-132225663D01*
X153980186Y-132225666D01*
X153925001Y-132392203D01*
X153925001Y-132392204D01*
X153925000Y-132392204D01*
X153914500Y-132494983D01*
X142000500Y-132494983D01*
X142000500Y-128922648D01*
X147274500Y-128922648D01*
X147274500Y-129127351D01*
X147306522Y-129329534D01*
X147369781Y-129524223D01*
X147462715Y-129706613D01*
X147583028Y-129872213D01*
X147727786Y-130016971D01*
X147882749Y-130129556D01*
X147893390Y-130137287D01*
X148009607Y-130196503D01*
X148075776Y-130230218D01*
X148075778Y-130230218D01*
X148075781Y-130230220D01*
X148180137Y-130264127D01*
X148270465Y-130293477D01*
X148371557Y-130309488D01*
X148472648Y-130325500D01*
X148472649Y-130325500D01*
X148677351Y-130325500D01*
X148677352Y-130325500D01*
X148879534Y-130293477D01*
X149074219Y-130230220D01*
X149256610Y-130137287D01*
X149349590Y-130069732D01*
X149422213Y-130016971D01*
X149422215Y-130016968D01*
X149422219Y-130016966D01*
X149566966Y-129872219D01*
X149566968Y-129872215D01*
X149566971Y-129872213D01*
X149619732Y-129799590D01*
X149687287Y-129706610D01*
X149780220Y-129524219D01*
X149843477Y-129329534D01*
X149875500Y-129127352D01*
X149875500Y-128922648D01*
X157434500Y-128922648D01*
X157434500Y-129127351D01*
X157466522Y-129329534D01*
X157529781Y-129524223D01*
X157622715Y-129706613D01*
X157743028Y-129872213D01*
X157887786Y-130016971D01*
X158042749Y-130129556D01*
X158053390Y-130137287D01*
X158169607Y-130196503D01*
X158235776Y-130230218D01*
X158235778Y-130230218D01*
X158235781Y-130230220D01*
X158340137Y-130264127D01*
X158430465Y-130293477D01*
X158531557Y-130309488D01*
X158632648Y-130325500D01*
X158632649Y-130325500D01*
X158837351Y-130325500D01*
X158837352Y-130325500D01*
X159039534Y-130293477D01*
X159234219Y-130230220D01*
X159416610Y-130137287D01*
X159509590Y-130069732D01*
X159582213Y-130016971D01*
X159582215Y-130016968D01*
X159582219Y-130016966D01*
X159726966Y-129872219D01*
X159726968Y-129872215D01*
X159726971Y-129872213D01*
X159779732Y-129799590D01*
X159847287Y-129706610D01*
X159940220Y-129524219D01*
X160003477Y-129329534D01*
X160035500Y-129127352D01*
X160035500Y-128922648D01*
X160003477Y-128720466D01*
X159940220Y-128525781D01*
X159940218Y-128525778D01*
X159940218Y-128525776D01*
X159906503Y-128459607D01*
X159847287Y-128343390D01*
X159839556Y-128332749D01*
X159726971Y-128177786D01*
X159582213Y-128033028D01*
X159416613Y-127912715D01*
X159416612Y-127912714D01*
X159416610Y-127912713D01*
X159359653Y-127883691D01*
X159234223Y-127819781D01*
X159039534Y-127756522D01*
X158864995Y-127728878D01*
X158837352Y-127724500D01*
X158632648Y-127724500D01*
X158608329Y-127728351D01*
X158430465Y-127756522D01*
X158235776Y-127819781D01*
X158053386Y-127912715D01*
X157887786Y-128033028D01*
X157743028Y-128177786D01*
X157622715Y-128343386D01*
X157529781Y-128525776D01*
X157466522Y-128720465D01*
X157434500Y-128922648D01*
X149875500Y-128922648D01*
X149843477Y-128720466D01*
X149780220Y-128525781D01*
X149780218Y-128525778D01*
X149780218Y-128525776D01*
X149746503Y-128459607D01*
X149687287Y-128343390D01*
X149679556Y-128332749D01*
X149566971Y-128177786D01*
X149422213Y-128033028D01*
X149256613Y-127912715D01*
X149256612Y-127912714D01*
X149256610Y-127912713D01*
X149199653Y-127883691D01*
X149074223Y-127819781D01*
X148879534Y-127756522D01*
X148704995Y-127728878D01*
X148677352Y-127724500D01*
X148472648Y-127724500D01*
X148448329Y-127728351D01*
X148270465Y-127756522D01*
X148075776Y-127819781D01*
X147893386Y-127912715D01*
X147727786Y-128033028D01*
X147583028Y-128177786D01*
X147462715Y-128343386D01*
X147369781Y-128525776D01*
X147306522Y-128720465D01*
X147274500Y-128922648D01*
X142000500Y-128922648D01*
X142000500Y-125624500D01*
X142020185Y-125557461D01*
X142072989Y-125511706D01*
X142124500Y-125500500D01*
X168875500Y-125500500D01*
X168942539Y-125520185D01*
G37*
%TD.AperFunction*%
%TD*%
M02*
