%TF.GenerationSoftware,KiCad,Pcbnew,10.0.1*%
%TF.CreationDate,2026-04-29T10:34:41+05:30*%
%TF.ProjectId,MCU_Board,4d43555f-426f-4617-9264-2e6b69636164,rev?*%
%TF.SameCoordinates,Original*%
%TF.FileFunction,Legend,Top*%
%TF.FilePolarity,Positive*%
%FSLAX46Y46*%
G04 Gerber Fmt 4.6, Leading zero omitted, Abs format (unit mm)*
G04 Created by KiCad (PCBNEW 10.0.1) date 2026-04-29 10:34:41*
%MOMM*%
%LPD*%
G01*
G04 APERTURE LIST*
%ADD10C,0.150000*%
%ADD11C,0.120000*%
G04 APERTURE END LIST*
D10*
X158263095Y-130219819D02*
X158263095Y-131029342D01*
X158263095Y-131029342D02*
X158310714Y-131124580D01*
X158310714Y-131124580D02*
X158358333Y-131172200D01*
X158358333Y-131172200D02*
X158453571Y-131219819D01*
X158453571Y-131219819D02*
X158644047Y-131219819D01*
X158644047Y-131219819D02*
X158739285Y-131172200D01*
X158739285Y-131172200D02*
X158786904Y-131124580D01*
X158786904Y-131124580D02*
X158834523Y-131029342D01*
X158834523Y-131029342D02*
X158834523Y-130219819D01*
X159834523Y-131219819D02*
X159263095Y-131219819D01*
X159548809Y-131219819D02*
X159548809Y-130219819D01*
X159548809Y-130219819D02*
X159453571Y-130362676D01*
X159453571Y-130362676D02*
X159358333Y-130457914D01*
X159358333Y-130457914D02*
X159263095Y-130505533D01*
X153488333Y-127109819D02*
X153155000Y-126633628D01*
X152916905Y-127109819D02*
X152916905Y-126109819D01*
X152916905Y-126109819D02*
X153297857Y-126109819D01*
X153297857Y-126109819D02*
X153393095Y-126157438D01*
X153393095Y-126157438D02*
X153440714Y-126205057D01*
X153440714Y-126205057D02*
X153488333Y-126300295D01*
X153488333Y-126300295D02*
X153488333Y-126443152D01*
X153488333Y-126443152D02*
X153440714Y-126538390D01*
X153440714Y-126538390D02*
X153393095Y-126586009D01*
X153393095Y-126586009D02*
X153297857Y-126633628D01*
X153297857Y-126633628D02*
X152916905Y-126633628D01*
X154440714Y-127109819D02*
X153869286Y-127109819D01*
X154155000Y-127109819D02*
X154155000Y-126109819D01*
X154155000Y-126109819D02*
X154059762Y-126252676D01*
X154059762Y-126252676D02*
X153964524Y-126347914D01*
X153964524Y-126347914D02*
X153869286Y-126395533D01*
X156626905Y-142989819D02*
X156626905Y-141989819D01*
X156626905Y-141989819D02*
X156865000Y-141989819D01*
X156865000Y-141989819D02*
X157007857Y-142037438D01*
X157007857Y-142037438D02*
X157103095Y-142132676D01*
X157103095Y-142132676D02*
X157150714Y-142227914D01*
X157150714Y-142227914D02*
X157198333Y-142418390D01*
X157198333Y-142418390D02*
X157198333Y-142561247D01*
X157198333Y-142561247D02*
X157150714Y-142751723D01*
X157150714Y-142751723D02*
X157103095Y-142846961D01*
X157103095Y-142846961D02*
X157007857Y-142942200D01*
X157007857Y-142942200D02*
X156865000Y-142989819D01*
X156865000Y-142989819D02*
X156626905Y-142989819D01*
X158150714Y-142989819D02*
X157579286Y-142989819D01*
X157865000Y-142989819D02*
X157865000Y-141989819D01*
X157865000Y-141989819D02*
X157769762Y-142132676D01*
X157769762Y-142132676D02*
X157674524Y-142227914D01*
X157674524Y-142227914D02*
X157579286Y-142275533D01*
X150198108Y-137484580D02*
X150150489Y-137532200D01*
X150150489Y-137532200D02*
X150007632Y-137579819D01*
X150007632Y-137579819D02*
X149912394Y-137579819D01*
X149912394Y-137579819D02*
X149769537Y-137532200D01*
X149769537Y-137532200D02*
X149674299Y-137436961D01*
X149674299Y-137436961D02*
X149626680Y-137341723D01*
X149626680Y-137341723D02*
X149579061Y-137151247D01*
X149579061Y-137151247D02*
X149579061Y-137008390D01*
X149579061Y-137008390D02*
X149626680Y-136817914D01*
X149626680Y-136817914D02*
X149674299Y-136722676D01*
X149674299Y-136722676D02*
X149769537Y-136627438D01*
X149769537Y-136627438D02*
X149912394Y-136579819D01*
X149912394Y-136579819D02*
X150007632Y-136579819D01*
X150007632Y-136579819D02*
X150150489Y-136627438D01*
X150150489Y-136627438D02*
X150198108Y-136675057D01*
X150579061Y-136675057D02*
X150626680Y-136627438D01*
X150626680Y-136627438D02*
X150721918Y-136579819D01*
X150721918Y-136579819D02*
X150960013Y-136579819D01*
X150960013Y-136579819D02*
X151055251Y-136627438D01*
X151055251Y-136627438D02*
X151102870Y-136675057D01*
X151102870Y-136675057D02*
X151150489Y-136770295D01*
X151150489Y-136770295D02*
X151150489Y-136865533D01*
X151150489Y-136865533D02*
X151102870Y-137008390D01*
X151102870Y-137008390D02*
X150531442Y-137579819D01*
X150531442Y-137579819D02*
X151150489Y-137579819D01*
X150198108Y-130934580D02*
X150150489Y-130982200D01*
X150150489Y-130982200D02*
X150007632Y-131029819D01*
X150007632Y-131029819D02*
X149912394Y-131029819D01*
X149912394Y-131029819D02*
X149769537Y-130982200D01*
X149769537Y-130982200D02*
X149674299Y-130886961D01*
X149674299Y-130886961D02*
X149626680Y-130791723D01*
X149626680Y-130791723D02*
X149579061Y-130601247D01*
X149579061Y-130601247D02*
X149579061Y-130458390D01*
X149579061Y-130458390D02*
X149626680Y-130267914D01*
X149626680Y-130267914D02*
X149674299Y-130172676D01*
X149674299Y-130172676D02*
X149769537Y-130077438D01*
X149769537Y-130077438D02*
X149912394Y-130029819D01*
X149912394Y-130029819D02*
X150007632Y-130029819D01*
X150007632Y-130029819D02*
X150150489Y-130077438D01*
X150150489Y-130077438D02*
X150198108Y-130125057D01*
X151150489Y-131029819D02*
X150579061Y-131029819D01*
X150864775Y-131029819D02*
X150864775Y-130029819D01*
X150864775Y-130029819D02*
X150769537Y-130172676D01*
X150769537Y-130172676D02*
X150674299Y-130267914D01*
X150674299Y-130267914D02*
X150579061Y-130315533D01*
%TO.C,U1*%
D11*
X156375000Y-131765000D02*
X156375000Y-142045000D01*
X156375000Y-142045000D02*
X161675000Y-142045000D01*
X158025000Y-131765000D02*
X156375000Y-131765000D01*
X161675000Y-131765000D02*
X160025000Y-131765000D01*
X161675000Y-142045000D02*
X161675000Y-131765000D01*
X160025000Y-131765000D02*
G75*
G02*
X158025000Y-131765000I-1000000J0D01*
G01*
%TO.C,R1*%
X149615000Y-129025000D02*
X150385000Y-129025000D01*
X157695000Y-129025000D02*
X156925000Y-129025000D01*
X150385000Y-127655000D02*
X156925000Y-127655000D01*
X156925000Y-130395000D01*
X150385000Y-130395000D01*
X150385000Y-127655000D01*
%TO.C,D1*%
X154805000Y-144950000D02*
X154805000Y-148040000D01*
X154805000Y-144950170D02*
G75*
G02*
X160355000Y-146495000I2560000J-1544830D01*
G01*
X160355000Y-146495000D02*
G75*
G02*
X154805000Y-148039830I-2990000J0D01*
G01*
X159865000Y-146495000D02*
G75*
G02*
X154865000Y-146495000I-2500000J0D01*
G01*
X154865000Y-146495000D02*
G75*
G02*
X159865000Y-146495000I2500000J0D01*
G01*
%TO.C,C2*%
X147560000Y-139400000D02*
X148060000Y-139400000D01*
X147810000Y-139150000D02*
X147810000Y-139650000D01*
X150364775Y-138295000D02*
X150364775Y-143455000D01*
X150404775Y-138295000D02*
X150404775Y-143455000D01*
X150444775Y-138296000D02*
X150444775Y-143454000D01*
X150484775Y-138298000D02*
X150484775Y-143452000D01*
X150524775Y-138300000D02*
X150524775Y-143450000D01*
X150564775Y-138303000D02*
X150564775Y-143447000D01*
X150604775Y-138306000D02*
X150604775Y-139835000D01*
X150604775Y-141915000D02*
X150604775Y-143444000D01*
X150644775Y-138310000D02*
X150644775Y-139835000D01*
X150644775Y-141915000D02*
X150644775Y-143440000D01*
X150684775Y-138315000D02*
X150684775Y-139835000D01*
X150684775Y-141915000D02*
X150684775Y-143435000D01*
X150724775Y-138320000D02*
X150724775Y-139835000D01*
X150724775Y-141915000D02*
X150724775Y-143430000D01*
X150764775Y-138326000D02*
X150764775Y-139835000D01*
X150764775Y-141915000D02*
X150764775Y-143424000D01*
X150804775Y-138332000D02*
X150804775Y-139835000D01*
X150804775Y-141915000D02*
X150804775Y-143418000D01*
X150844775Y-138339000D02*
X150844775Y-139835000D01*
X150844775Y-141915000D02*
X150844775Y-143411000D01*
X150884775Y-138347000D02*
X150884775Y-139835000D01*
X150884775Y-141915000D02*
X150884775Y-143403000D01*
X150924775Y-138356000D02*
X150924775Y-139835000D01*
X150924775Y-141915000D02*
X150924775Y-143394000D01*
X150964775Y-138365000D02*
X150964775Y-139835000D01*
X150964775Y-141915000D02*
X150964775Y-143385000D01*
X151004775Y-138374000D02*
X151004775Y-139835000D01*
X151004775Y-141915000D02*
X151004775Y-143376000D01*
X151044775Y-138385000D02*
X151044775Y-139835000D01*
X151044775Y-141915000D02*
X151044775Y-143365000D01*
X151084775Y-138396000D02*
X151084775Y-139835000D01*
X151084775Y-141915000D02*
X151084775Y-143354000D01*
X151124775Y-138408000D02*
X151124775Y-139835000D01*
X151124775Y-141915000D02*
X151124775Y-143342000D01*
X151164775Y-138420000D02*
X151164775Y-139835000D01*
X151164775Y-141915000D02*
X151164775Y-143330000D01*
X151204775Y-138433000D02*
X151204775Y-139835000D01*
X151204775Y-141915000D02*
X151204775Y-143317000D01*
X151244775Y-138447000D02*
X151244775Y-139835000D01*
X151244775Y-141915000D02*
X151244775Y-143303000D01*
X151284775Y-138462000D02*
X151284775Y-139835000D01*
X151284775Y-141915000D02*
X151284775Y-143288000D01*
X151324775Y-138477000D02*
X151324775Y-139835000D01*
X151324775Y-141915000D02*
X151324775Y-143273000D01*
X151364775Y-138493000D02*
X151364775Y-139835000D01*
X151364775Y-141915000D02*
X151364775Y-143257000D01*
X151404775Y-138510000D02*
X151404775Y-139835000D01*
X151404775Y-141915000D02*
X151404775Y-143240000D01*
X151444775Y-138528000D02*
X151444775Y-139835000D01*
X151444775Y-141915000D02*
X151444775Y-143222000D01*
X151484775Y-138546000D02*
X151484775Y-139835000D01*
X151484775Y-141915000D02*
X151484775Y-143204000D01*
X151524775Y-138566000D02*
X151524775Y-139835000D01*
X151524775Y-141915000D02*
X151524775Y-143184000D01*
X151564775Y-138586000D02*
X151564775Y-139835000D01*
X151564775Y-141915000D02*
X151564775Y-143164000D01*
X151604775Y-138607000D02*
X151604775Y-139835000D01*
X151604775Y-141915000D02*
X151604775Y-143143000D01*
X151644775Y-138629000D02*
X151644775Y-139835000D01*
X151644775Y-141915000D02*
X151644775Y-143121000D01*
X151684775Y-138652000D02*
X151684775Y-139835000D01*
X151684775Y-141915000D02*
X151684775Y-143098000D01*
X151724775Y-138676000D02*
X151724775Y-139835000D01*
X151724775Y-141915000D02*
X151724775Y-143074000D01*
X151764775Y-138700000D02*
X151764775Y-139835000D01*
X151764775Y-141915000D02*
X151764775Y-143050000D01*
X151804775Y-138726000D02*
X151804775Y-139835000D01*
X151804775Y-141915000D02*
X151804775Y-143024000D01*
X151844775Y-138753000D02*
X151844775Y-139835000D01*
X151844775Y-141915000D02*
X151844775Y-142997000D01*
X151884775Y-138781000D02*
X151884775Y-139835000D01*
X151884775Y-141915000D02*
X151884775Y-142969000D01*
X151924775Y-138810000D02*
X151924775Y-139835000D01*
X151924775Y-141915000D02*
X151924775Y-142940000D01*
X151964775Y-138840000D02*
X151964775Y-139835000D01*
X151964775Y-141915000D02*
X151964775Y-142910000D01*
X152004775Y-138872000D02*
X152004775Y-139835000D01*
X152004775Y-141915000D02*
X152004775Y-142878000D01*
X152044775Y-138905000D02*
X152044775Y-139835000D01*
X152044775Y-141915000D02*
X152044775Y-142845000D01*
X152084775Y-138939000D02*
X152084775Y-139835000D01*
X152084775Y-141915000D02*
X152084775Y-142811000D01*
X152124775Y-138974000D02*
X152124775Y-139835000D01*
X152124775Y-141915000D02*
X152124775Y-142776000D01*
X152164775Y-139011000D02*
X152164775Y-139835000D01*
X152164775Y-141915000D02*
X152164775Y-142739000D01*
X152204775Y-139050000D02*
X152204775Y-139835000D01*
X152204775Y-141915000D02*
X152204775Y-142700000D01*
X152244775Y-139090000D02*
X152244775Y-139835000D01*
X152244775Y-141915000D02*
X152244775Y-142660000D01*
X152284775Y-139132000D02*
X152284775Y-139835000D01*
X152284775Y-141915000D02*
X152284775Y-142618000D01*
X152324775Y-139176000D02*
X152324775Y-139835000D01*
X152324775Y-141915000D02*
X152324775Y-142574000D01*
X152364775Y-139223000D02*
X152364775Y-139835000D01*
X152364775Y-141915000D02*
X152364775Y-142527000D01*
X152404775Y-139271000D02*
X152404775Y-139835000D01*
X152404775Y-141915000D02*
X152404775Y-142479000D01*
X152444775Y-139322000D02*
X152444775Y-139835000D01*
X152444775Y-141915000D02*
X152444775Y-142428000D01*
X152484775Y-139376000D02*
X152484775Y-139835000D01*
X152484775Y-141915000D02*
X152484775Y-142374000D01*
X152524775Y-139432000D02*
X152524775Y-139835000D01*
X152524775Y-141915000D02*
X152524775Y-142318000D01*
X152564775Y-139492000D02*
X152564775Y-139835000D01*
X152564775Y-141915000D02*
X152564775Y-142258000D01*
X152604775Y-139556000D02*
X152604775Y-139835000D01*
X152604775Y-141915000D02*
X152604775Y-142194000D01*
X152644775Y-139624000D02*
X152644775Y-139835000D01*
X152644775Y-141915000D02*
X152644775Y-142126000D01*
X152684775Y-139698000D02*
X152684775Y-142052000D01*
X152724775Y-139777000D02*
X152724775Y-141973000D01*
X152764775Y-139864000D02*
X152764775Y-141886000D01*
X152804775Y-139961000D02*
X152804775Y-141789000D01*
X152844775Y-140070000D02*
X152844775Y-141680000D01*
X152884775Y-140198000D02*
X152884775Y-141552000D01*
X152924775Y-140358000D02*
X152924775Y-141392000D01*
X152964775Y-140592000D02*
X152964775Y-141158000D01*
X152984775Y-140875000D02*
G75*
G02*
X147744775Y-140875000I-2620000J0D01*
G01*
X147744775Y-140875000D02*
G75*
G02*
X152984775Y-140875000I2620000J0D01*
G01*
%TO.C,C1*%
X147560000Y-132850000D02*
X148060000Y-132850000D01*
X147810000Y-132600000D02*
X147810000Y-133100000D01*
X150364775Y-131745000D02*
X150364775Y-136905000D01*
X150404775Y-131745000D02*
X150404775Y-136905000D01*
X150444775Y-131746000D02*
X150444775Y-136904000D01*
X150484775Y-131748000D02*
X150484775Y-136902000D01*
X150524775Y-131750000D02*
X150524775Y-136900000D01*
X150564775Y-131753000D02*
X150564775Y-136897000D01*
X150604775Y-131756000D02*
X150604775Y-133285000D01*
X150604775Y-135365000D02*
X150604775Y-136894000D01*
X150644775Y-131760000D02*
X150644775Y-133285000D01*
X150644775Y-135365000D02*
X150644775Y-136890000D01*
X150684775Y-131765000D02*
X150684775Y-133285000D01*
X150684775Y-135365000D02*
X150684775Y-136885000D01*
X150724775Y-131770000D02*
X150724775Y-133285000D01*
X150724775Y-135365000D02*
X150724775Y-136880000D01*
X150764775Y-131776000D02*
X150764775Y-133285000D01*
X150764775Y-135365000D02*
X150764775Y-136874000D01*
X150804775Y-131782000D02*
X150804775Y-133285000D01*
X150804775Y-135365000D02*
X150804775Y-136868000D01*
X150844775Y-131789000D02*
X150844775Y-133285000D01*
X150844775Y-135365000D02*
X150844775Y-136861000D01*
X150884775Y-131797000D02*
X150884775Y-133285000D01*
X150884775Y-135365000D02*
X150884775Y-136853000D01*
X150924775Y-131806000D02*
X150924775Y-133285000D01*
X150924775Y-135365000D02*
X150924775Y-136844000D01*
X150964775Y-131815000D02*
X150964775Y-133285000D01*
X150964775Y-135365000D02*
X150964775Y-136835000D01*
X151004775Y-131824000D02*
X151004775Y-133285000D01*
X151004775Y-135365000D02*
X151004775Y-136826000D01*
X151044775Y-131835000D02*
X151044775Y-133285000D01*
X151044775Y-135365000D02*
X151044775Y-136815000D01*
X151084775Y-131846000D02*
X151084775Y-133285000D01*
X151084775Y-135365000D02*
X151084775Y-136804000D01*
X151124775Y-131858000D02*
X151124775Y-133285000D01*
X151124775Y-135365000D02*
X151124775Y-136792000D01*
X151164775Y-131870000D02*
X151164775Y-133285000D01*
X151164775Y-135365000D02*
X151164775Y-136780000D01*
X151204775Y-131883000D02*
X151204775Y-133285000D01*
X151204775Y-135365000D02*
X151204775Y-136767000D01*
X151244775Y-131897000D02*
X151244775Y-133285000D01*
X151244775Y-135365000D02*
X151244775Y-136753000D01*
X151284775Y-131912000D02*
X151284775Y-133285000D01*
X151284775Y-135365000D02*
X151284775Y-136738000D01*
X151324775Y-131927000D02*
X151324775Y-133285000D01*
X151324775Y-135365000D02*
X151324775Y-136723000D01*
X151364775Y-131943000D02*
X151364775Y-133285000D01*
X151364775Y-135365000D02*
X151364775Y-136707000D01*
X151404775Y-131960000D02*
X151404775Y-133285000D01*
X151404775Y-135365000D02*
X151404775Y-136690000D01*
X151444775Y-131978000D02*
X151444775Y-133285000D01*
X151444775Y-135365000D02*
X151444775Y-136672000D01*
X151484775Y-131996000D02*
X151484775Y-133285000D01*
X151484775Y-135365000D02*
X151484775Y-136654000D01*
X151524775Y-132016000D02*
X151524775Y-133285000D01*
X151524775Y-135365000D02*
X151524775Y-136634000D01*
X151564775Y-132036000D02*
X151564775Y-133285000D01*
X151564775Y-135365000D02*
X151564775Y-136614000D01*
X151604775Y-132057000D02*
X151604775Y-133285000D01*
X151604775Y-135365000D02*
X151604775Y-136593000D01*
X151644775Y-132079000D02*
X151644775Y-133285000D01*
X151644775Y-135365000D02*
X151644775Y-136571000D01*
X151684775Y-132102000D02*
X151684775Y-133285000D01*
X151684775Y-135365000D02*
X151684775Y-136548000D01*
X151724775Y-132126000D02*
X151724775Y-133285000D01*
X151724775Y-135365000D02*
X151724775Y-136524000D01*
X151764775Y-132150000D02*
X151764775Y-133285000D01*
X151764775Y-135365000D02*
X151764775Y-136500000D01*
X151804775Y-132176000D02*
X151804775Y-133285000D01*
X151804775Y-135365000D02*
X151804775Y-136474000D01*
X151844775Y-132203000D02*
X151844775Y-133285000D01*
X151844775Y-135365000D02*
X151844775Y-136447000D01*
X151884775Y-132231000D02*
X151884775Y-133285000D01*
X151884775Y-135365000D02*
X151884775Y-136419000D01*
X151924775Y-132260000D02*
X151924775Y-133285000D01*
X151924775Y-135365000D02*
X151924775Y-136390000D01*
X151964775Y-132290000D02*
X151964775Y-133285000D01*
X151964775Y-135365000D02*
X151964775Y-136360000D01*
X152004775Y-132322000D02*
X152004775Y-133285000D01*
X152004775Y-135365000D02*
X152004775Y-136328000D01*
X152044775Y-132355000D02*
X152044775Y-133285000D01*
X152044775Y-135365000D02*
X152044775Y-136295000D01*
X152084775Y-132389000D02*
X152084775Y-133285000D01*
X152084775Y-135365000D02*
X152084775Y-136261000D01*
X152124775Y-132424000D02*
X152124775Y-133285000D01*
X152124775Y-135365000D02*
X152124775Y-136226000D01*
X152164775Y-132461000D02*
X152164775Y-133285000D01*
X152164775Y-135365000D02*
X152164775Y-136189000D01*
X152204775Y-132500000D02*
X152204775Y-133285000D01*
X152204775Y-135365000D02*
X152204775Y-136150000D01*
X152244775Y-132540000D02*
X152244775Y-133285000D01*
X152244775Y-135365000D02*
X152244775Y-136110000D01*
X152284775Y-132582000D02*
X152284775Y-133285000D01*
X152284775Y-135365000D02*
X152284775Y-136068000D01*
X152324775Y-132626000D02*
X152324775Y-133285000D01*
X152324775Y-135365000D02*
X152324775Y-136024000D01*
X152364775Y-132673000D02*
X152364775Y-133285000D01*
X152364775Y-135365000D02*
X152364775Y-135977000D01*
X152404775Y-132721000D02*
X152404775Y-133285000D01*
X152404775Y-135365000D02*
X152404775Y-135929000D01*
X152444775Y-132772000D02*
X152444775Y-133285000D01*
X152444775Y-135365000D02*
X152444775Y-135878000D01*
X152484775Y-132826000D02*
X152484775Y-133285000D01*
X152484775Y-135365000D02*
X152484775Y-135824000D01*
X152524775Y-132882000D02*
X152524775Y-133285000D01*
X152524775Y-135365000D02*
X152524775Y-135768000D01*
X152564775Y-132942000D02*
X152564775Y-133285000D01*
X152564775Y-135365000D02*
X152564775Y-135708000D01*
X152604775Y-133006000D02*
X152604775Y-133285000D01*
X152604775Y-135365000D02*
X152604775Y-135644000D01*
X152644775Y-133074000D02*
X152644775Y-133285000D01*
X152644775Y-135365000D02*
X152644775Y-135576000D01*
X152684775Y-133148000D02*
X152684775Y-135502000D01*
X152724775Y-133227000D02*
X152724775Y-135423000D01*
X152764775Y-133314000D02*
X152764775Y-135336000D01*
X152804775Y-133411000D02*
X152804775Y-135239000D01*
X152844775Y-133520000D02*
X152844775Y-135130000D01*
X152884775Y-133648000D02*
X152884775Y-135002000D01*
X152924775Y-133808000D02*
X152924775Y-134842000D01*
X152964775Y-134042000D02*
X152964775Y-134608000D01*
X152984775Y-134325000D02*
G75*
G02*
X147744775Y-134325000I-2620000J0D01*
G01*
X147744775Y-134325000D02*
G75*
G02*
X152984775Y-134325000I2620000J0D01*
G01*
%TD*%
M02*
