%TF.GenerationSoftware,KiCad,Pcbnew,10.0.1*%
%TF.CreationDate,2026-04-28T11:57:07+05:30*%
%TF.ProjectId,Arduino_Shield,41726475-696e-46f5-9f53-6869656c642e,rev?*%
%TF.SameCoordinates,Original*%
%TF.FileFunction,Legend,Top*%
%TF.FilePolarity,Positive*%
%FSLAX46Y46*%
G04 Gerber Fmt 4.6, Leading zero omitted, Abs format (unit mm)*
G04 Created by KiCad (PCBNEW 10.0.1) date 2026-04-28 11:57:07*
%MOMM*%
%LPD*%
G01*
G04 APERTURE LIST*
%ADD10C,0.150000*%
%ADD11C,0.120000*%
G04 APERTURE END LIST*
D10*
X125001667Y-140882200D02*
X125144524Y-140929819D01*
X125144524Y-140929819D02*
X125382619Y-140929819D01*
X125382619Y-140929819D02*
X125477857Y-140882200D01*
X125477857Y-140882200D02*
X125525476Y-140834580D01*
X125525476Y-140834580D02*
X125573095Y-140739342D01*
X125573095Y-140739342D02*
X125573095Y-140644104D01*
X125573095Y-140644104D02*
X125525476Y-140548866D01*
X125525476Y-140548866D02*
X125477857Y-140501247D01*
X125477857Y-140501247D02*
X125382619Y-140453628D01*
X125382619Y-140453628D02*
X125192143Y-140406009D01*
X125192143Y-140406009D02*
X125096905Y-140358390D01*
X125096905Y-140358390D02*
X125049286Y-140310771D01*
X125049286Y-140310771D02*
X125001667Y-140215533D01*
X125001667Y-140215533D02*
X125001667Y-140120295D01*
X125001667Y-140120295D02*
X125049286Y-140025057D01*
X125049286Y-140025057D02*
X125096905Y-139977438D01*
X125096905Y-139977438D02*
X125192143Y-139929819D01*
X125192143Y-139929819D02*
X125430238Y-139929819D01*
X125430238Y-139929819D02*
X125573095Y-139977438D01*
X125906429Y-139929819D02*
X126144524Y-140929819D01*
X126144524Y-140929819D02*
X126335000Y-140215533D01*
X126335000Y-140215533D02*
X126525476Y-140929819D01*
X126525476Y-140929819D02*
X126763572Y-139929819D01*
X127668333Y-140929819D02*
X127096905Y-140929819D01*
X127382619Y-140929819D02*
X127382619Y-139929819D01*
X127382619Y-139929819D02*
X127287381Y-140072676D01*
X127287381Y-140072676D02*
X127192143Y-140167914D01*
X127192143Y-140167914D02*
X127096905Y-140215533D01*
X106913333Y-142084819D02*
X106580000Y-141608628D01*
X106341905Y-142084819D02*
X106341905Y-141084819D01*
X106341905Y-141084819D02*
X106722857Y-141084819D01*
X106722857Y-141084819D02*
X106818095Y-141132438D01*
X106818095Y-141132438D02*
X106865714Y-141180057D01*
X106865714Y-141180057D02*
X106913333Y-141275295D01*
X106913333Y-141275295D02*
X106913333Y-141418152D01*
X106913333Y-141418152D02*
X106865714Y-141513390D01*
X106865714Y-141513390D02*
X106818095Y-141561009D01*
X106818095Y-141561009D02*
X106722857Y-141608628D01*
X106722857Y-141608628D02*
X106341905Y-141608628D01*
X107294286Y-141180057D02*
X107341905Y-141132438D01*
X107341905Y-141132438D02*
X107437143Y-141084819D01*
X107437143Y-141084819D02*
X107675238Y-141084819D01*
X107675238Y-141084819D02*
X107770476Y-141132438D01*
X107770476Y-141132438D02*
X107818095Y-141180057D01*
X107818095Y-141180057D02*
X107865714Y-141275295D01*
X107865714Y-141275295D02*
X107865714Y-141370533D01*
X107865714Y-141370533D02*
X107818095Y-141513390D01*
X107818095Y-141513390D02*
X107246667Y-142084819D01*
X107246667Y-142084819D02*
X107865714Y-142084819D01*
X106753333Y-132084819D02*
X106420000Y-131608628D01*
X106181905Y-132084819D02*
X106181905Y-131084819D01*
X106181905Y-131084819D02*
X106562857Y-131084819D01*
X106562857Y-131084819D02*
X106658095Y-131132438D01*
X106658095Y-131132438D02*
X106705714Y-131180057D01*
X106705714Y-131180057D02*
X106753333Y-131275295D01*
X106753333Y-131275295D02*
X106753333Y-131418152D01*
X106753333Y-131418152D02*
X106705714Y-131513390D01*
X106705714Y-131513390D02*
X106658095Y-131561009D01*
X106658095Y-131561009D02*
X106562857Y-131608628D01*
X106562857Y-131608628D02*
X106181905Y-131608628D01*
X107705714Y-132084819D02*
X107134286Y-132084819D01*
X107420000Y-132084819D02*
X107420000Y-131084819D01*
X107420000Y-131084819D02*
X107324762Y-131227676D01*
X107324762Y-131227676D02*
X107229524Y-131322914D01*
X107229524Y-131322914D02*
X107134286Y-131370533D01*
X118496905Y-140494819D02*
X118496905Y-139494819D01*
X118496905Y-139494819D02*
X118735000Y-139494819D01*
X118735000Y-139494819D02*
X118877857Y-139542438D01*
X118877857Y-139542438D02*
X118973095Y-139637676D01*
X118973095Y-139637676D02*
X119020714Y-139732914D01*
X119020714Y-139732914D02*
X119068333Y-139923390D01*
X119068333Y-139923390D02*
X119068333Y-140066247D01*
X119068333Y-140066247D02*
X119020714Y-140256723D01*
X119020714Y-140256723D02*
X118973095Y-140351961D01*
X118973095Y-140351961D02*
X118877857Y-140447200D01*
X118877857Y-140447200D02*
X118735000Y-140494819D01*
X118735000Y-140494819D02*
X118496905Y-140494819D01*
X119449286Y-139590057D02*
X119496905Y-139542438D01*
X119496905Y-139542438D02*
X119592143Y-139494819D01*
X119592143Y-139494819D02*
X119830238Y-139494819D01*
X119830238Y-139494819D02*
X119925476Y-139542438D01*
X119925476Y-139542438D02*
X119973095Y-139590057D01*
X119973095Y-139590057D02*
X120020714Y-139685295D01*
X120020714Y-139685295D02*
X120020714Y-139780533D01*
X120020714Y-139780533D02*
X119973095Y-139923390D01*
X119973095Y-139923390D02*
X119401667Y-140494819D01*
X119401667Y-140494819D02*
X120020714Y-140494819D01*
X118531905Y-130494819D02*
X118531905Y-129494819D01*
X118531905Y-129494819D02*
X118770000Y-129494819D01*
X118770000Y-129494819D02*
X118912857Y-129542438D01*
X118912857Y-129542438D02*
X119008095Y-129637676D01*
X119008095Y-129637676D02*
X119055714Y-129732914D01*
X119055714Y-129732914D02*
X119103333Y-129923390D01*
X119103333Y-129923390D02*
X119103333Y-130066247D01*
X119103333Y-130066247D02*
X119055714Y-130256723D01*
X119055714Y-130256723D02*
X119008095Y-130351961D01*
X119008095Y-130351961D02*
X118912857Y-130447200D01*
X118912857Y-130447200D02*
X118770000Y-130494819D01*
X118770000Y-130494819D02*
X118531905Y-130494819D01*
X120055714Y-130494819D02*
X119484286Y-130494819D01*
X119770000Y-130494819D02*
X119770000Y-129494819D01*
X119770000Y-129494819D02*
X119674762Y-129637676D01*
X119674762Y-129637676D02*
X119579524Y-129732914D01*
X119579524Y-129732914D02*
X119484286Y-129780533D01*
%TO.C,SW1*%
D11*
X123935000Y-141675000D02*
X123935000Y-142675000D01*
X124535000Y-141675000D02*
X123935000Y-141675000D01*
X125335000Y-144475000D02*
X127335000Y-144475000D01*
X128135000Y-141675000D02*
X128735000Y-141675000D01*
X128735000Y-141675000D02*
X128735000Y-142675000D01*
%TO.C,R2*%
X103040000Y-144000000D02*
X103810000Y-144000000D01*
X111120000Y-144000000D02*
X110350000Y-144000000D01*
X103810000Y-142630000D02*
X110350000Y-142630000D01*
X110350000Y-145370000D01*
X103810000Y-145370000D01*
X103810000Y-142630000D01*
%TO.C,R1*%
X102880000Y-134000000D02*
X103650000Y-134000000D01*
X110960000Y-134000000D02*
X110190000Y-134000000D01*
X103650000Y-132630000D02*
X110190000Y-132630000D01*
X110190000Y-135370000D01*
X103650000Y-135370000D01*
X103650000Y-132630000D01*
%TO.C,D2*%
X116675000Y-142455000D02*
X116675000Y-145545000D01*
X116675000Y-142455170D02*
G75*
G02*
X122225000Y-144000000I2560000J-1544830D01*
G01*
X122225000Y-144000000D02*
G75*
G02*
X116675000Y-145544830I-2990000J0D01*
G01*
X121735000Y-144000000D02*
G75*
G02*
X116735000Y-144000000I-2500000J0D01*
G01*
X116735000Y-144000000D02*
G75*
G02*
X121735000Y-144000000I2500000J0D01*
G01*
%TO.C,D1*%
X116710000Y-132455000D02*
X116710000Y-135545000D01*
X116710000Y-132455170D02*
G75*
G02*
X122260000Y-134000000I2560000J-1544830D01*
G01*
X122260000Y-134000000D02*
G75*
G02*
X116710000Y-135544830I-2990000J0D01*
G01*
X121770000Y-134000000D02*
G75*
G02*
X116770000Y-134000000I-2500000J0D01*
G01*
X116770000Y-134000000D02*
G75*
G02*
X121770000Y-134000000I2500000J0D01*
G01*
%TD*%
M02*
